<?xml version="1.0" encoding="utf-8"?>
<!-- Generator: Adobe Illustrator 19.0.0, SVG Export Plug-In . SVG Version: 6.00 Build 0)  -->
<svg version="1.1" id="Layer_1" xmlns="http://www.w3.org/2000/svg" xmlns:xlink="http://www.w3.org/1999/xlink" x="0px" y="0px"
	 viewBox="0 0 810 972" style="enable-background:new 0 0 810 972;" xml:space="preserve">
<style type="text/css">
	.st0{fill:#F7ECE7;}
</style>
<path class="st0" d="M141,509.7h45.8c25,0,38.3,14.8,38.3,35.6c0,16.6-8.2,28.9-23.5,33.6l34.5,56.3h-25.9L176.4,581h-12.2v54.1H141
	V509.7z M186.8,559.6c8.4,0,14.6-4,14.6-14.1s-6.2-14.1-14.6-14.1h-22.6v28.3H186.8z"/>
<path class="st0" d="M252.6,589.8c0-21.2,12.4-46.6,43.4-46.6c30.1,0,42.1,25,42.1,44.6v9.1h-63.5c0.4,9.9,9.1,20.3,22.8,20.3
	c10.2,0,17.5-5.7,22.1-12.8l17.7,9.3c-7.1,12.1-19.3,22.5-41.2,22.5C265,636.4,252.6,611.3,252.6,589.8z M317.2,580.3
	c-2.2-9.7-8.2-18.6-21.3-18.6c-12.4,0-19.5,9.3-21.3,18.6H317.2z"/>
<path class="st0" d="M369,609c0-17.9,15.7-29.6,38.5-29.6h15.1v-4c0-9.9-7.5-14.4-15.7-14.4c-6.2,0-12.8,3.1-15.7,12.6l-18.8-5.3
	c4.2-14.8,17.7-25,34.5-25c21.5,0,37,9.1,37,37.8v53.9h-17.3l-2.2-11.5c-6.2,7.7-14.8,12.8-27.9,12.8C381,636.4,369,626.9,369,609z
	 M422.6,598.2v-2h-16.4c-10.4,0-16.8,4-16.8,12.8c0,4.6,3.3,9.5,10.2,9.5C410.6,618.3,422.6,610.8,422.6,598.2z"/>
<path class="st0" d="M475.5,589.8c0-25.2,15.7-46.6,43.4-46.6c18.6,0,31.7,8,39.2,25l-19,8c-4.9-10.8-11.3-13.9-20.1-13.9
	c-12.4,0-21.3,9.9-21.3,27.6c0,17.7,8.9,27.6,21.3,27.6c8.9,0,15.3-3.1,20.1-13.9l19,8c-7.3,16.8-20.4,25-39.2,25
	C491.2,636.4,475.5,615.2,475.5,589.8z"/>
<path class="st0" d="M605.9,598.7v-34.9h-22.4v-19h22.4v-22.5l22.4-13.9v36.4h39.4v19H628v35.3c0,12.6,5.5,18.3,14.8,18.3
	c6.2,0,12-2.9,18.4-10.6l7.5,17.9c-8.2,8.2-16.6,11.7-26.1,11.7C619.2,636.4,605.9,623.8,605.9,598.7z"/>
<path class="st0" d="M144.3,822.2c0-7.3,2.7-13.7,7.3-17.9c-2.9-3.3-4.6-8.2-4.6-13.9c0-8.6,4.4-15,11.1-19c-4-4.9-6.2-11-6.2-18.6
	c0-18.8,14.8-30.5,33.2-30.5c6.2,0,11.7,1.3,16.6,4l17-9.1l8.9,14.6l-12.8,6.4c2.4,4.2,3.5,9.1,3.5,14.4c0,19-14.8,30-33.2,30
	c-4.6,0-9.1-0.7-13.1-2c-2.7,1.5-4.2,4-4.2,6.8c0,4.2,3.1,6.6,8.4,6.6h18.4c19,0,31.7,9.1,31.7,26.5c0,22.3-21,31.1-41.2,31.1
	C162.3,852,144.3,842.1,144.3,822.2z M204.1,822.2c0-7.5-6.2-9.3-14.6-9.3h-12.2c-3.8,0-7.1-0.2-10.4-0.7c-1.3,2.2-2,4.9-2,8.2
	c0,8.6,8.6,12.8,20.4,12.8C195.9,833.4,204.1,830.4,204.1,822.2z M197.5,752.8c0-7.5-5.3-12.6-12.4-12.6c-7.1,0-12.4,5.1-12.4,12.6
	c0,7.3,5.3,12.1,12.4,12.1C192.4,765,197.5,760.1,197.5,752.8z"/>
<path class="st0" d="M256.1,795H284v-52.1h-23.2v-19h45.8v71.3h27.9v19h-78.4V795z M279.8,697.8c0-8,6.2-14.4,14.4-14.4
	c8.2,0,14.4,6.2,14.4,14.4c0,8-6.2,14.4-14.4,14.4C286,712.2,279.8,706,279.8,697.8z"/>
<path class="st0" d="M365.7,723.9h22.4v13.7c9.1-12.8,23-15.2,31.2-15.2c16.2,0,27.2,10.8,28.3,30.9h-21.9
	c-0.4-10.2-5.8-12.8-11.5-12.8c-14.4,0-26.1,18.6-26.1,45.9V814h-22.4V723.9z"/>
<path class="st0" d="M494.1,780v-72.2h-23.2v-19h45.4v86.4c0,15.5,6.6,18.8,13.7,18.8c9.3,0,13.5-6.4,15.1-15.2l19.5,4
	c-3.3,21.9-16.2,32.7-34.5,32.7C509.2,815.6,494.1,802.7,494.1,780z"/>
<path class="st0" d="M591.1,788.4l20.1-7.1c3.3,10.4,9.3,15,20.4,15c8.4,0,14.8-3.3,14.8-8.6c0-4.9-4.6-7.3-19-10.4
	c-18.4-4-30.6-12.8-30.6-28.9c0-16.1,15.7-26.1,32.1-26.1c17.3,0,28.6,8,35.4,20.3l-15.9,11c-4.6-9.1-11.7-12.4-19.3-12.4
	c-6,0-11.7,3.1-11.7,7.7c0,4.2,2.9,7.5,16.4,10.2c21,4.2,33.2,10.8,33.2,27.2c0,18.6-16.4,28.9-36.3,28.9
	C612.8,815.6,597.9,808.3,591.1,788.4z"/>
<path class="st0" d="M587.3,242.8c-2.4-4.6-5.8-8.6-9.7-12.4c-6.9-6.6-15.7-12.1-26.1-17c-8.6-4-18.6-7.7-29.2-10.8
	c1.1-4.2,2-8.4,2.7-12.4c2-10.4,2.9-20.1,3.1-28.9c0-10.2-1.3-19.7-4.4-27.8c-1.6-4.2-3.8-8-6.4-11.3c-2.7-3.3-6-6.2-9.7-8.4
	c-2.7-1.5-5.8-2.9-8.9-3.5c-3.1-0.7-6.2-1.1-9.3-1.1c-5.1,0-10.4,0.9-15.5,2.4c-9.1,2.9-18.4,7.7-27.7,14.4
	c-7.7,5.3-15.5,11.9-23.2,19.4c-0.9-0.9-2-1.8-2.9-2.6c-11.1-10.2-21.9-18.3-32.3-24.1c-5.3-2.9-10.6-5.3-15.7-6.8
	c-5.3-1.5-10.4-2.4-15.5-2.4c-3.1,0-6.2,0.4-9.3,1.1c-3.1,0.7-6,2-8.9,3.5c-3.8,2.2-7.1,5.1-9.7,8.4c-4,5.1-6.6,11-8.4,17.7
	c-1.8,6.6-2.4,13.7-2.4,21.4c0,9.1,1.1,18.8,3.1,28.9c0.7,4,1.8,8.2,2.7,12.4c-1.5,0.4-3.1,0.9-4.4,1.3c-18.4,5.7-33.9,13-45.6,21.9
	c-5.8,4.4-10.6,9.5-14.2,15.2c-1.8,2.9-3.1,6-4.2,9.1c-0.9,3.1-1.6,6.6-1.6,9.9c0,6,1.8,11.9,4.4,17c2.4,4.6,5.8,8.6,9.7,12.4
	c6.9,6.6,15.7,12.1,26.1,17c8.6,4,18.6,7.7,29.2,10.8c-1.1,4.2-2,8.4-2.7,12.4c-2,10.4-2.9,20.1-3.1,28.9c0,10.2,1.3,19.7,4.4,27.8
	c1.6,4.2,3.8,8,6.4,11.3c2.7,3.3,6,6.2,9.7,8.4c2.7,1.5,5.8,2.9,8.9,3.5c3.1,0.7,6.2,1.1,9.3,1.1c5.1,0,10.4-0.9,15.5-2.4
	c9.1-2.9,18.4-7.7,27.7-14.4c7.7-5.3,15.5-11.9,23.2-19.4c0.9,0.9,2,1.8,2.9,2.7c11.1,10.2,21.9,18.3,32.3,24.1
	c5.3,2.9,10.6,5.3,15.7,6.8c5.3,1.5,10.4,2.4,15.5,2.4c3.1,0,6.2-0.4,9.3-1.1c3.1-0.7,6-2,8.9-3.5c3.8-2.2,7.1-5.1,9.7-8.4
	c4-5.1,6.6-11,8.4-17.7s2.4-13.7,2.4-21.4c0-9.1-1.1-18.8-3.1-28.9c-0.7-4-1.8-8.2-2.7-12.4c1.5-0.4,3.1-0.9,4.4-1.3
	c18.4-5.7,33.9-13,45.6-21.9c5.8-4.4,10.6-9.5,14.2-15.2c1.8-2.9,3.1-6,4.2-9.1c0.9-3.1,1.5-6.6,1.5-9.9
	C592,253.9,590.2,248.1,587.3,242.8z M468,136.8c4.2-2.4,8.2-4,11.7-5.1c3.5-1.1,6.6-1.5,9.3-1.5c1.5,0,2.9,0.2,4.2,0.4
	c1.3,0.2,2.2,0.7,3.3,1.3c1.3,0.9,2.7,1.8,3.8,3.3c1.8,2.2,3.3,5.3,4.4,9.7c1.1,4.4,1.8,9.7,1.8,16.1c0,7.3-0.9,15.9-2.7,25.2
	c-0.7,3.5-1.5,7.5-2.4,11.3c-2.2-0.4-4.6-0.9-6.9-1.3c-10.4-2-21.3-3.3-32.5-4.4c-8-11.3-16.4-21.9-24.8-31.1
	c0.9-0.9,1.8-1.8,2.7-2.4C449.8,148.8,459.6,141.7,468,136.8z M489,235.1c-1.8-3.3-3.8-6.8-5.8-10.2l-9.3,5.3l9.3-5.3
	c-2-3.5-4-6.8-6-10.2c1.8,0.2,3.5,0.4,5.3,0.9c4.4,0.7,8.6,1.5,12.8,2.2c-1.5,4.9-3.3,9.7-5.3,14.6
	C489.9,233.3,489.5,234.2,489,235.1z M489,284.8c2.4,6,4.4,11.7,6.4,17.2c-1.5,0.2-3.1,0.7-4.9,0.9c-4.4,0.9-8.9,1.5-13.3,2.2
	c2-3.3,4-6.6,6-10.2C485.3,291.7,487.2,288.1,489,284.8z M464.9,284.4c-4.6,8.2-9.7,16.1-14.6,23.4c-9.1,0.7-18.4,0.9-27.7,0.9
	c-9.5,0-18.8-0.4-27.7-0.9c-5.1-7.5-10-15.2-14.6-23.4c-4.6-8.2-9.1-16.3-13.1-24.5c4-8.2,8.4-16.3,13.1-24.5
	c4.6-8.2,9.7-16.1,14.6-23.4c9.1-0.7,18.4-0.9,27.7-0.9c9.5,0,18.8,0.4,27.7,0.9c5.1,7.5,10,15.2,14.6,23.4
	c4.6,8.2,9.1,16.3,13.1,24.5C474,268,469.8,276.2,464.9,284.4z M422.6,344c-1.1-1.3-2.4-2.7-3.5-4c-2.7-3.3-5.5-6.6-8.2-10.2
	c4,0,7.7,0.2,11.7,0.2c4,0,8,0,11.7-0.2C430.3,334.9,426.4,339.6,422.6,344z M356,284.8c1.8,3.3,3.8,6.8,5.8,10.2
	c2,3.5,4,6.8,6,10.2c-1.8-0.2-3.5-0.4-5.3-0.9c-4.4-0.7-8.6-1.5-12.8-2.2c1.5-4.9,3.3-9.7,5.3-14.6
	C355.3,286.6,355.5,285.7,356,284.8z M361.7,225c-2,3.3-4,6.8-5.8,10.2c-2.4-6-4.4-11.7-6.4-17.2c1.5-0.2,3.1-0.7,4.9-0.9
	c4.4-0.9,8.9-1.5,13.3-2.2C365.7,218.1,363.7,221.4,361.7,225z M422.6,175.9c1.1,1.3,2.4,2.6,3.5,4c2.7,3.3,5.5,6.6,8.2,10.2
	c-4,0-7.7-0.2-11.7-0.2c-4,0-8,0-11.7,0.2C414.6,185,418.6,180.3,422.6,175.9z M341.1,186.3c-1.8-9.3-2.7-17.7-2.7-25.2
	c0-8.4,1.1-15.2,3.1-20.1c0.9-2.4,2-4.4,3.1-5.7c1.1-1.5,2.4-2.4,3.8-3.3c1.1-0.7,2-1.1,3.3-1.3c1.3-0.2,2.7-0.4,4.2-0.4
	c2.7,0,5.8,0.4,9.3,1.5c6.2,2,13.7,5.7,21.9,11.5c6.6,4.6,13.5,10.4,20.8,17.2c-1.8,1.8-3.3,3.8-5.1,5.7
	c-6.6,7.7-13.3,16.3-19.7,25.4c-8.2,0.7-16.2,1.8-23.9,3.1c-5.3,0.9-10.4,1.8-15.5,2.9C342.7,193.6,341.8,189.8,341.1,186.3z
	 M286,277.3c-4.2-3.3-7.3-6.6-9.1-9.5c-0.9-1.5-1.5-2.9-2-4.2c-0.4-1.3-0.7-2.4-0.7-3.8c0-2.2,0.4-4.4,2-6.8
	c1.1-2.2,3.1-4.6,5.8-7.3c4.6-4.4,11.7-9.1,20.6-13.3c7.5-3.5,16.2-6.8,26.1-9.5c1.8,5.7,4,11.5,6.2,17.4c2.4,6.4,5.3,13,8.4,19.7
	c-5.8,12.6-10.8,25.2-14.6,37.1c-1.3-0.4-2.9-0.9-4.2-1.3C307.9,290.6,294.4,284.1,286,277.3z M377,383.1c-4.2,2.4-8.2,4-11.7,5.1
	s-6.6,1.5-9.3,1.5c-1.5,0-2.9-0.2-4.2-0.4c-1.3-0.2-2.2-0.7-3.3-1.3c-1.3-0.9-2.7-1.8-3.8-3.3c-1.8-2.2-3.3-5.3-4.4-9.7
	c-1.1-4.4-1.8-9.7-1.8-16.1c0-7.3,0.9-15.9,2.7-25.2c0.7-3.5,1.5-7.5,2.4-11.3c2.2,0.4,4.6,0.9,6.9,1.3c10.4,2,21.3,3.3,32.5,4.4
	c8,11.3,16.4,21.9,24.8,31.1c-0.9,0.9-1.8,1.8-2.7,2.4C395.1,371.2,385.6,378.2,377,383.1z M504.1,333.6c1.8,9.3,2.7,17.7,2.7,25.2
	c0,8.4-1.1,15.2-3.1,20.1c-0.9,2.4-2,4.4-3.1,5.7c-1.1,1.5-2.4,2.4-3.8,3.3c-1.1,0.7-2,1.1-3.3,1.3c-1.3,0.2-2.7,0.4-4.2,0.4
	c-2.7,0-5.8-0.4-9.3-1.5c-6.2-2-13.7-5.7-21.9-11.5c-6.6-4.6-13.5-10.4-20.8-17.2c1.8-1.8,3.3-3.8,5.1-5.7
	c6.6-7.7,13.3-16.3,19.7-25.4c8.2-0.7,16.2-1.8,23.9-3.1c5.3-0.9,10.4-1.8,15.5-2.9C502.5,326.3,503.4,330.1,504.1,333.6z
	 M568.7,266.9c-1.1,2.2-3.1,4.6-5.8,7.3c-4.6,4.4-11.7,9.1-20.6,13.3c-7.5,3.5-16.2,6.8-26.1,9.5c-1.8-5.7-4-11.5-6.2-17.4
	c-2.4-6.4-5.3-13-8.4-19.7c5.8-12.6,10.8-25.2,14.6-37.1c1.3,0.4,2.9,0.9,4.2,1.3c16.8,5.1,30.1,11.7,38.7,18.3
	c4.2,3.3,7.3,6.6,9.1,9.5c0.9,1.5,1.5,2.9,2,4.2c0.4,1.3,0.7,2.4,0.7,3.8C570.7,262.1,570,264.3,568.7,266.9z"/>
</svg>
