<?xml version="1.0" encoding="utf-8"?>
<!-- Generator: Adobe Illustrator 19.0.0, SVG Export Plug-In . SVG Version: 6.00 Build 0)  -->
<svg version="1.1" id="Layer_1" xmlns="http://www.w3.org/2000/svg" xmlns:xlink="http://www.w3.org/1999/xlink" x="0px" y="0px"
	 viewBox="0 0 810 972" style="enable-background:new 0 0 810 972;" xml:space="preserve">
<style type="text/css">
	.st0{fill:#F7ECE7;}
</style>
<path class="st0" d="M679.1,453.2c-4-7.6-9.5-14.2-16-20.4c-11.3-10.9-25.9-20-43-28c-14.2-6.5-30.6-12.7-48.1-17.8
	c1.8-6.9,3.3-13.8,4.4-20.4c3.3-17.1,4.7-33.1,5.1-47.6c0-16.7-2.2-32.4-7.3-45.8c-2.6-6.9-6.2-13.1-10.6-18.5
	c-4.4-5.5-9.8-10.2-16-13.8c-4.4-2.5-9.5-4.7-14.6-5.8c-5.1-1.1-10.2-1.8-15.3-1.8c-8.4,0-17.1,1.5-25.5,4
	c-14.9,4.7-30.3,12.7-45.6,23.6c-12.8,8.7-25.5,19.6-38.3,32c-1.5-1.5-3.3-2.9-4.7-4.4c-18.2-16.7-36.1-30.2-53.2-39.6
	c-8.7-4.7-17.5-8.7-25.9-11.3c-8.7-2.5-17.1-4-25.5-4c-5.1,0-10.2,0.7-15.3,1.8c-5.1,1.1-9.8,3.3-14.6,5.8
	c-6.2,3.6-11.7,8.4-16,13.8c-6.6,8.4-10.9,18.2-13.9,29.1c-2.9,10.9-4,22.5-4,35.3c0,14.9,1.8,30.9,5.1,47.6
	c1.1,6.5,2.9,13.5,4.4,20.4c-2.6,0.7-5.1,1.5-7.3,2.2c-30.3,9.5-55.8,21.5-75.1,36c-9.5,7.3-17.5,15.6-23.3,25.1
	c-2.9,4.7-5.1,9.8-6.9,14.9c-1.5,5.1-2.6,10.9-2.6,16.4c0,9.8,2.9,19.6,7.3,28c4,7.6,9.5,14.2,16,20.4c11.3,10.9,25.9,20,43,28
	c14.2,6.5,30.6,12.7,48.1,17.8c-1.8,6.9-3.3,13.8-4.4,20.4c-3.3,17.1-4.7,33.1-5.1,47.6c0,16.7,2.2,32.4,7.3,45.8
	c2.6,6.9,6.2,13.1,10.6,18.5c4.4,5.5,9.8,10.2,16,13.8c4.4,2.5,9.5,4.7,14.6,5.8c5.1,1.1,10.2,1.8,15.3,1.8c8.4,0,17.1-1.5,25.5-4
	c14.9-4.7,30.3-12.7,45.6-23.6c12.8-8.7,25.5-19.6,38.3-32c1.5,1.5,3.3,2.9,4.7,4.4c18.2,16.7,36.1,30.2,53.2,39.6
	c8.7,4.7,17.5,8.7,25.9,11.3c8.7,2.5,17.1,4,25.5,4c5.1,0,10.2-0.7,15.3-1.8c5.1-1.1,9.8-3.3,14.6-5.8c6.2-3.6,11.7-8.4,16-13.8
	c6.6-8.4,10.9-18.2,13.9-29.1c2.9-10.9,4-22.5,4-35.3c0-14.9-1.8-30.9-5.1-47.6c-1.1-6.5-2.9-13.5-4.4-20.4c2.6-0.7,5.1-1.5,7.3-2.2
	c30.2-9.5,55.8-21.5,75.1-36c9.5-7.3,17.5-15.6,23.3-25.1c2.9-4.7,5.1-9.8,6.9-14.9c1.5-5.1,2.6-10.9,2.6-16.4
	C686.7,471.4,683.8,461.9,679.1,453.2z M482.6,278.7c6.9-4,13.5-6.5,19.3-8.4c5.8-1.8,10.9-2.5,15.3-2.5c2.6,0,4.7,0.4,6.9,0.7
	c2.2,0.4,3.6,1.1,5.5,2.2c2.2,1.5,4.4,2.9,6.2,5.5c2.9,3.6,5.5,8.7,7.3,16c1.8,7.3,2.9,16,2.9,26.5c0,12-1.5,26.2-4.4,41.5
	c-1.1,5.8-2.6,12.4-4,18.5c-3.6-0.7-7.7-1.5-11.3-2.2c-17.1-3.3-35-5.5-53.6-7.3c-13.1-18.5-27-36-40.8-51.3c1.5-1.5,2.9-2.9,4.4-4
	C452.7,298.3,468.8,286.7,482.6,278.7z M517.3,440.5c-2.9-5.5-6.2-11.3-9.5-16.7l-15.3,8.7l15.3-8.7c-3.3-5.8-6.6-11.3-9.8-16.7
	c2.9,0.4,5.8,0.7,8.7,1.5c7.3,1.1,14.2,2.5,21.1,3.6c-2.6,8-5.5,16-8.7,24C518.7,437.6,518,439,517.3,440.5z M517.3,522.3
	c4,9.8,7.3,19.3,10.6,28.4c-2.6,0.4-5.1,1.1-8,1.5c-7.3,1.5-14.6,2.5-21.9,3.6c3.3-5.5,6.6-10.9,9.8-16.7
	C511.1,533.6,514.3,527.8,517.3,522.3z M477.5,521.6c-7.7,13.5-16,26.5-24.1,38.5c-14.9,1.1-30.3,1.5-45.6,1.5
	c-15.7,0-31-0.7-45.6-1.5c-8.4-12.4-16.4-25.1-24.1-38.5c-7.7-13.5-14.9-26.9-21.5-40.4c6.6-13.5,13.9-26.9,21.5-40.4
	c7.7-13.5,16-26.5,24.1-38.5c14.9-1.1,30.3-1.5,45.6-1.5c15.7,0,31,0.7,45.6,1.5c8.4,12.4,16.4,25.1,24.1,38.5
	c7.7,13.5,14.9,26.9,21.5,40.4C492.5,494.7,485.5,508.1,477.5,521.6z M407.9,619.8c-1.8-2.2-4-4.4-5.8-6.5
	c-4.4-5.5-9.1-10.9-13.5-16.7c6.6,0,12.8,0.4,19.3,0.4c6.6,0,13.1,0,19.3-0.4C420.7,604.8,414.1,612.5,407.9,619.8z M298.2,522.3
	c2.9,5.5,6.2,11.3,9.5,16.7c3.3,5.8,6.6,11.3,9.8,16.7c-2.9-0.4-5.8-0.7-8.7-1.5c-7.3-1.1-14.2-2.5-21.1-3.6c2.6-8,5.5-16,8.7-24
	C297.1,525.2,297.5,523.8,298.2,522.3z M307.7,423.8c-3.3,5.5-6.6,11.3-9.5,16.7c-4-9.8-7.3-19.3-10.6-28.4c2.6-0.4,5.1-1.1,8-1.5
	c7.3-1.5,14.6-2.5,21.9-3.6C314.2,412.5,311,417.9,307.7,423.8z M407.9,343c1.8,2.2,4,4.4,5.8,6.5c4.4,5.5,9.1,10.9,13.5,16.7
	c-6.6,0-12.8-0.4-19.3-0.4c-6.6,0-13.1,0-19.3,0.4C394.8,357.9,401.4,350.3,407.9,343z M273.8,360.1c-2.9-15.3-4.4-29.1-4.4-41.5
	c0-13.8,1.8-25.1,5.1-33.1c1.5-4,3.3-7.3,5.1-9.5c1.8-2.5,4-4,6.2-5.5c1.8-1.1,3.3-1.8,5.5-2.2c2.2-0.4,4.4-0.7,6.9-0.7
	c4.4,0,9.5,0.7,15.3,2.5c10.2,3.3,22.6,9.5,36.1,18.9c10.9,7.6,22.2,17.1,34.3,28.4c-2.9,2.9-5.5,6.2-8.4,9.5
	c-10.9,12.7-21.9,26.9-32.4,41.8c-13.5,1.1-26.6,2.9-39.4,5.1c-8.7,1.5-17.1,2.9-25.5,4.7C276.3,372.1,274.9,365.9,273.8,360.1z
	 M183,509.9c-6.9-5.5-12-10.9-14.9-15.6c-1.5-2.5-2.6-4.7-3.3-6.9c-0.7-2.2-1.1-4-1.1-6.2c0-3.6,0.7-7.3,3.3-11.3
	c1.8-3.6,5.1-7.6,9.5-12c7.7-7.3,19.3-14.9,33.9-21.8c12.4-5.8,26.6-11.3,43-15.6c2.9,9.5,6.6,18.9,10.2,28.7
	c4,10.5,8.7,21.5,13.9,32.4c-9.5,20.7-17.9,41.5-24.1,61.1c-2.2-0.7-4.7-1.5-6.9-2.2C219.1,531.8,196.9,521.2,183,509.9z
	 M332.8,684.1c-6.9,4-13.5,6.5-19.3,8.4c-5.8,1.8-10.9,2.5-15.3,2.5c-2.6,0-4.7-0.4-6.9-0.7c-2.2-0.4-3.6-1.1-5.5-2.2
	c-2.2-1.5-4.4-2.9-6.2-5.5c-2.9-3.6-5.5-8.7-7.3-16c-1.8-7.3-2.9-16-2.9-26.5c0-12,1.5-26.2,4.4-41.5c1.1-5.8,2.6-12.4,4-18.5
	c3.6,0.7,7.7,1.5,11.3,2.2c17.1,3.3,35,5.5,53.6,7.3c13.1,18.5,27,36,40.8,51.3c-1.5,1.5-2.9,2.9-4.4,4
	C362.7,664.5,347.1,676.1,332.8,684.1z M542,602.7c2.9,15.3,4.4,29.1,4.4,41.5c0,13.8-1.8,25.1-5.1,33.1c-1.5,4-3.3,7.3-5.1,9.5
	c-1.8,2.5-4,4-6.2,5.5c-1.8,1.1-3.3,1.8-5.5,2.2c-2.2,0.4-4.4,0.7-6.9,0.7c-4.4,0-9.5-0.7-15.3-2.5c-10.2-3.3-22.6-9.5-36.1-18.9
	c-10.9-7.6-22.2-17.1-34.3-28.4c2.9-2.9,5.5-6.2,8.4-9.5c10.9-12.7,21.9-26.9,32.4-41.8c13.5-1.1,26.6-2.9,39.4-5.1
	c8.7-1.5,17.1-2.9,25.5-4.7C539.5,590.7,540.9,596.8,542,602.7z M648.5,492.8c-1.8,3.6-5.1,7.6-9.5,12c-7.7,7.3-19.3,14.9-33.9,21.8
	c-12.4,5.8-26.6,11.3-43,15.6c-2.9-9.5-6.6-18.9-10.2-28.7c-4-10.5-8.7-21.5-13.9-32.4c9.5-20.7,17.9-41.5,24.1-61.1
	c2.2,0.7,4.7,1.5,6.9,2.2c27.7,8.4,49.6,19.3,63.8,30.2c6.9,5.5,12,10.9,14.9,15.6c1.5,2.5,2.6,4.7,3.3,6.9s1.1,4,1.1,6.2
	C651.7,484.8,650.7,488.5,648.5,492.8z"/>
</svg>
