<?xml version="1.0" encoding="utf-8"?>
<!-- Generator: Adobe Illustrator 19.0.0, SVG Export Plug-In . SVG Version: 6.00 Build 0)  -->
<svg version="1.1" id="Layer_1" xmlns="http://www.w3.org/2000/svg" xmlns:xlink="http://www.w3.org/1999/xlink" x="0px" y="0px"
	 viewBox="-71.6 704.9 9.8 8.8" style="enable-background:new -71.6 704.9 9.8 8.8;" xml:space="preserve">
<style type="text/css">
	.st0{opacity:0.81;fill:#F7ECE7;}
</style>
<path class="st0" d="M-61.9,708.8c-0.1-0.1-0.2-0.2-0.3-0.4c-0.2-0.2-0.5-0.4-0.8-0.5c-0.3-0.1-0.5-0.2-0.8-0.3
	c0-0.1,0.1-0.2,0.1-0.4c0.1-0.3,0.1-0.6,0.1-0.8c0-0.3,0-0.6-0.1-0.8c0-0.1-0.1-0.2-0.2-0.3c-0.1-0.1-0.2-0.2-0.3-0.2
	c-0.1,0-0.2-0.1-0.3-0.1c-0.1,0-0.2,0-0.3,0c-0.1,0-0.3,0-0.4,0.1c-0.3,0.1-0.5,0.2-0.8,0.4c-0.2,0.2-0.4,0.3-0.7,0.6
	c0,0-0.1-0.1-0.1-0.1c-0.3-0.3-0.6-0.5-0.9-0.7c-0.2-0.1-0.3-0.2-0.5-0.2c-0.2,0-0.3-0.1-0.4-0.1c-0.1,0-0.2,0-0.3,0
	c-0.1,0-0.2,0.1-0.3,0.1c-0.1,0.1-0.2,0.1-0.3,0.2c-0.1,0.1-0.2,0.3-0.2,0.5c-0.1,0.2-0.1,0.4-0.1,0.6c0,0.3,0,0.5,0.1,0.8
	c0,0.1,0.1,0.2,0.1,0.4c0,0-0.1,0-0.1,0c-0.5,0.2-1,0.4-1.3,0.6c-0.2,0.1-0.3,0.3-0.4,0.4c0,0.1-0.1,0.2-0.1,0.3c0,0.1,0,0.2,0,0.3
	c0,0.2,0.1,0.3,0.1,0.5c0.1,0.1,0.2,0.2,0.3,0.4c0.2,0.2,0.5,0.4,0.8,0.5c0.3,0.1,0.5,0.2,0.8,0.3c0,0.1-0.1,0.2-0.1,0.4
	c-0.1,0.3-0.1,0.6-0.1,0.8c0,0.3,0,0.6,0.1,0.8c0,0.1,0.1,0.2,0.2,0.3c0.1,0.1,0.2,0.2,0.3,0.2c0.1,0,0.2,0.1,0.3,0.1
	c0.1,0,0.2,0,0.3,0c0.1,0,0.3,0,0.4-0.1c0.3-0.1,0.5-0.2,0.8-0.4c0.2-0.2,0.4-0.3,0.7-0.6c0,0,0.1,0.1,0.1,0.1
	c0.3,0.3,0.6,0.5,0.9,0.7c0.2,0.1,0.3,0.2,0.5,0.2c0.2,0,0.3,0.1,0.4,0.1c0.1,0,0.2,0,0.3,0c0.1,0,0.2-0.1,0.3-0.1
	c0.1-0.1,0.2-0.1,0.3-0.2c0.1-0.1,0.2-0.3,0.2-0.5c0.1-0.2,0.1-0.4,0.1-0.6c0-0.3,0-0.5-0.1-0.8c0-0.1-0.1-0.2-0.1-0.4
	c0,0,0.1,0,0.1,0c0.5-0.2,1-0.4,1.3-0.6c0.2-0.1,0.3-0.3,0.4-0.4c0.1-0.1,0.1-0.2,0.1-0.3c0-0.1,0-0.2,0-0.3
	C-61.8,709.1-61.9,708.9-61.9,708.8z M-65.4,705.7c0.1-0.1,0.2-0.1,0.3-0.1c0.1,0,0.2,0,0.3,0c0,0,0.1,0,0.1,0c0,0,0.1,0,0.1,0
	c0,0,0.1,0.1,0.1,0.1c0.1,0.1,0.1,0.2,0.1,0.3c0,0.1,0.1,0.3,0.1,0.5c0,0.2,0,0.5-0.1,0.7c0,0.1,0,0.2-0.1,0.3c-0.1,0-0.1,0-0.2,0
	c-0.3-0.1-0.6-0.1-0.9-0.1c-0.2-0.3-0.5-0.6-0.7-0.9c0,0,0.1-0.1,0.1-0.1C-65.9,706-65.6,705.8-65.4,705.7z M-64.8,708.5
	c-0.1-0.1-0.1-0.2-0.2-0.3l-0.3,0.2l0.3-0.2c-0.1-0.1-0.1-0.2-0.2-0.3c0.1,0,0.1,0,0.2,0c0.1,0,0.3,0,0.4,0.1
	C-64.6,708.2-64.7,708.3-64.8,708.5C-64.8,708.5-64.8,708.5-64.8,708.5z M-64.8,710c0.1,0.2,0.1,0.3,0.2,0.5c0,0-0.1,0-0.1,0
	c-0.1,0-0.3,0-0.4,0.1c0.1-0.1,0.1-0.2,0.2-0.3C-64.9,710.2-64.8,710.1-64.8,710z M-65.5,710c-0.1,0.2-0.3,0.5-0.4,0.7
	c-0.3,0-0.5,0-0.8,0c-0.3,0-0.5,0-0.8,0c-0.1-0.2-0.3-0.4-0.4-0.7c-0.1-0.2-0.3-0.5-0.4-0.7c0.1-0.2,0.2-0.5,0.4-0.7
	s0.3-0.5,0.4-0.7c0.3,0,0.5,0,0.8,0c0.3,0,0.5,0,0.8,0c0.1,0.2,0.3,0.4,0.4,0.7c0.1,0.2,0.3,0.5,0.4,0.7
	C-65.2,709.5-65.3,709.7-65.5,710z M-66.7,711.7c0,0-0.1-0.1-0.1-0.1c-0.1-0.1-0.2-0.2-0.2-0.3c0.1,0,0.2,0,0.3,0s0.2,0,0.3,0
	C-66.5,711.4-66.6,711.6-66.7,711.7z M-68.6,710c0.1,0.1,0.1,0.2,0.2,0.3c0.1,0.1,0.1,0.2,0.2,0.3c-0.1,0-0.1,0-0.2,0
	c-0.1,0-0.3,0-0.4-0.1C-68.8,710.3-68.7,710.2-68.6,710C-68.7,710-68.7,710-68.6,710z M-68.5,708.3c-0.1,0.1-0.1,0.2-0.2,0.3
	c-0.1-0.2-0.1-0.3-0.2-0.5c0,0,0.1,0,0.1,0c0.1,0,0.3,0,0.4-0.1C-68.4,708.1-68.4,708.1-68.5,708.3z M-66.7,706.8
	c0,0,0.1,0.1,0.1,0.1c0.1,0.1,0.2,0.2,0.2,0.3c-0.1,0-0.2,0-0.3,0s-0.2,0-0.3,0C-66.9,707.1-66.8,707-66.7,706.8z M-69.1,707.1
	c-0.1-0.3-0.1-0.5-0.1-0.7c0-0.2,0-0.4,0.1-0.6c0-0.1,0.1-0.1,0.1-0.2c0,0,0.1-0.1,0.1-0.1c0,0,0.1,0,0.1,0c0,0,0.1,0,0.1,0
	c0.1,0,0.2,0,0.3,0c0.2,0.1,0.4,0.2,0.6,0.3c0.2,0.1,0.4,0.3,0.6,0.5c-0.1,0.1-0.1,0.1-0.1,0.2c-0.2,0.2-0.4,0.5-0.6,0.7
	c-0.2,0-0.5,0.1-0.7,0.1c-0.2,0-0.3,0.1-0.4,0.1C-69,707.3-69.1,707.2-69.1,707.1z M-70.7,709.8c-0.1-0.1-0.2-0.2-0.3-0.3
	c0,0,0-0.1-0.1-0.1c0,0,0-0.1,0-0.1c0-0.1,0-0.1,0.1-0.2c0-0.1,0.1-0.1,0.2-0.2c0.1-0.1,0.3-0.3,0.6-0.4c0.2-0.1,0.5-0.2,0.8-0.3
	c0.1,0.2,0.1,0.3,0.2,0.5c0.1,0.2,0.2,0.4,0.2,0.6c-0.2,0.4-0.3,0.7-0.4,1.1c0,0-0.1,0-0.1,0C-70,710.2-70.4,710-70.7,709.8z
	 M-68,712.8c-0.1,0.1-0.2,0.1-0.3,0.1c-0.1,0-0.2,0-0.3,0c0,0-0.1,0-0.1,0c0,0-0.1,0-0.1,0c0,0-0.1-0.1-0.1-0.1
	c-0.1-0.1-0.1-0.2-0.1-0.3c0-0.1-0.1-0.3-0.1-0.5c0-0.2,0-0.5,0.1-0.7c0-0.1,0-0.2,0.1-0.3c0.1,0,0.1,0,0.2,0
	c0.3,0.1,0.6,0.1,0.9,0.1c0.2,0.3,0.5,0.6,0.7,0.9c0,0-0.1,0.1-0.1,0.1C-67.5,712.5-67.8,712.7-68,712.8z M-64.4,711.4
	c0.1,0.3,0.1,0.5,0.1,0.7c0,0.2,0,0.4-0.1,0.6c0,0.1-0.1,0.1-0.1,0.2c0,0-0.1,0.1-0.1,0.1c0,0-0.1,0-0.1,0c0,0-0.1,0-0.1,0
	c-0.1,0-0.2,0-0.3,0c-0.2-0.1-0.4-0.2-0.6-0.3c-0.2-0.1-0.4-0.3-0.6-0.5c0.1-0.1,0.1-0.1,0.1-0.2c0.2-0.2,0.4-0.5,0.6-0.7
	c0.2,0,0.5-0.1,0.7-0.1c0.2,0,0.3-0.1,0.4-0.1C-64.4,711.2-64.4,711.3-64.4,711.4z M-62.5,709.5c0,0.1-0.1,0.1-0.2,0.2
	c-0.1,0.1-0.3,0.3-0.6,0.4c-0.2,0.1-0.5,0.2-0.8,0.3c-0.1-0.2-0.1-0.3-0.2-0.5c-0.1-0.2-0.2-0.4-0.2-0.6c0.2-0.4,0.3-0.7,0.4-1.1
	c0,0,0.1,0,0.1,0c0.5,0.1,0.9,0.3,1.1,0.5c0.1,0.1,0.2,0.2,0.3,0.3c0,0,0,0.1,0.1,0.1c0,0,0,0.1,0,0.1
	C-62.4,709.3-62.4,709.4-62.5,709.5z"/>
</svg>
