<?xml version="1.0" encoding="utf-8"?>
<!-- Generator: Adobe Illustrator 19.0.0, SVG Export Plug-In . SVG Version: 6.00 Build 0)  -->
<svg version="1.1" id="Layer_1" xmlns="http://www.w3.org/2000/svg" xmlns:xlink="http://www.w3.org/1999/xlink" x="0px" y="0px"
	 viewBox="0 0 338.5 305" style="enable-background:new 0 0 338.5 305;" xml:space="preserve">
<style type="text/css">
	.st0{fill:#00B4CD;}
</style>
<path class="st0" d="M333.8,135.1c-2.4-4.6-5.8-8.6-9.7-12.4c-6.9-6.6-15.7-12.1-26.1-17c-8.6-4-18.6-7.7-29.2-10.8
	c1.1-4.2,2-8.4,2.7-12.4c2-10.4,2.9-20.1,3.1-28.9c0-10.2-1.3-19.7-4.4-27.8c-1.6-4.2-3.8-8-6.4-11.3c-2.7-3.3-6-6.2-9.7-8.4
	c-2.7-1.5-5.8-2.9-8.9-3.5c-3.1-0.7-6.2-1.1-9.3-1.1c-5.1,0-10.4,0.9-15.5,2.4c-9.1,2.9-18.4,7.7-27.7,14.4
	c-7.7,5.3-15.5,11.9-23.2,19.4c-0.9-0.9-2-1.8-2.9-2.6c-11.1-10.2-21.9-18.3-32.3-24.1c-5.3-2.9-10.6-5.3-15.7-6.8
	c-5.3-1.5-10.4-2.4-15.5-2.4c-3.1,0-6.2,0.4-9.3,1.1c-3.1,0.7-6,2-8.9,3.5c-3.8,2.2-7.1,5.1-9.7,8.4c-4,5.1-6.6,11-8.4,17.7
	c-1.8,6.6-2.4,13.7-2.4,21.4c0,9.1,1.1,18.8,3.1,28.9c0.7,4,1.8,8.2,2.7,12.4c-1.5,0.4-3.1,0.9-4.4,1.3c-18.4,5.7-33.9,13-45.6,21.9
	c-5.8,4.4-10.6,9.5-14.2,15.2c-1.8,2.9-3.1,6-4.2,9.1c-0.9,3.1-1.6,6.6-1.6,9.9c0,6,1.8,11.9,4.4,17c2.4,4.6,5.8,8.6,9.7,12.4
	c6.9,6.6,15.7,12.1,26.1,17c8.6,4,18.6,7.7,29.2,10.8c-1.1,4.2-2,8.4-2.7,12.4c-2,10.4-2.9,20.1-3.1,28.9c0,10.2,1.3,19.7,4.4,27.8
	c1.6,4.2,3.8,8,6.4,11.3c2.7,3.3,6,6.2,9.7,8.4c2.7,1.5,5.8,2.9,8.9,3.5c3.1,0.7,6.2,1.1,9.3,1.1c5.1,0,10.4-0.9,15.5-2.4
	c9.1-2.9,18.4-7.7,27.7-14.4c7.7-5.3,15.5-11.9,23.2-19.4c0.9,0.9,2,1.8,2.9,2.7c11.1,10.2,21.9,18.3,32.3,24.1
	c5.3,2.9,10.6,5.3,15.7,6.8c5.3,1.5,10.4,2.4,15.5,2.4c3.1,0,6.2-0.4,9.3-1.1c3.1-0.7,6-2,8.9-3.5c3.8-2.2,7.1-5.1,9.7-8.4
	c4-5.1,6.6-11,8.4-17.7s2.4-13.7,2.4-21.4c0-9.1-1.1-18.8-3.1-28.9c-0.7-4-1.8-8.2-2.7-12.4c1.5-0.4,3.1-0.9,4.4-1.3
	c18.4-5.7,33.9-13,45.6-21.9c5.8-4.4,10.6-9.5,14.2-15.2c1.8-2.9,3.1-6,4.2-9.1c0.9-3.1,1.5-6.6,1.5-9.9
	C338.5,146.2,336.7,140.4,333.8,135.1z M214.5,29.1c4.2-2.4,8.2-4,11.7-5.1c3.5-1.1,6.6-1.5,9.3-1.5c1.5,0,2.9,0.2,4.2,0.4
	c1.3,0.2,2.2,0.7,3.3,1.3c1.3,0.9,2.7,1.8,3.8,3.3c1.8,2.2,3.3,5.3,4.4,9.7c1.1,4.4,1.8,9.7,1.8,16.1c0,7.3-0.9,15.9-2.7,25.2
	c-0.7,3.5-1.5,7.5-2.4,11.3c-2.2-0.4-4.6-0.9-6.9-1.3c-10.4-2-21.3-3.3-32.5-4.4c-8-11.3-16.4-21.9-24.8-31.1
	c0.9-0.9,1.8-1.8,2.7-2.4C196.4,41,206.1,34,214.5,29.1z M235.6,127.4c-1.8-3.3-3.8-6.8-5.8-10.2l-9.3,5.3l9.3-5.3
	c-2-3.5-4-6.8-6-10.2c1.8,0.2,3.5,0.4,5.3,0.9c4.4,0.7,8.6,1.5,12.8,2.2c-1.5,4.9-3.3,9.7-5.3,14.6
	C236.4,125.6,236,126.5,235.6,127.4z M235.6,177.1c2.4,6,4.4,11.7,6.4,17.2c-1.5,0.2-3.1,0.7-4.9,0.9c-4.4,0.9-8.9,1.5-13.3,2.2
	c2-3.3,4-6.6,6-10.2C231.8,183.9,233.8,180.4,235.6,177.1z M211.4,176.6c-4.6,8.2-9.7,16.1-14.6,23.4c-9.1,0.7-18.4,0.9-27.7,0.9
	c-9.5,0-18.8-0.4-27.7-0.9c-5.1-7.5-10-15.2-14.6-23.4c-4.6-8.2-9.1-16.3-13.1-24.5c4-8.2,8.4-16.3,13.1-24.5
	c4.6-8.2,9.7-16.1,14.6-23.4c9.1-0.7,18.4-0.9,27.7-0.9c9.5,0,18.8,0.4,27.7,0.9c5.1,7.5,10,15.2,14.6,23.4
	c4.6,8.2,9.1,16.3,13.1,24.5C220.5,160.3,216.3,168.5,211.4,176.6z M169.1,236.3c-1.1-1.3-2.4-2.7-3.5-4c-2.7-3.3-5.5-6.6-8.2-10.2
	c4,0,7.7,0.2,11.7,0.2c4,0,8,0,11.7-0.2C176.9,227.2,172.9,231.9,169.1,236.3z M102.5,177.1c1.8,3.3,3.8,6.8,5.8,10.2
	c2,3.5,4,6.8,6,10.2c-1.8-0.2-3.5-0.4-5.3-0.9c-4.4-0.7-8.6-1.5-12.8-2.2c1.5-4.9,3.3-9.7,5.3-14.6
	C101.8,178.8,102.1,178,102.5,177.1z M108.3,117.2c-2,3.3-4,6.8-5.8,10.2c-2.4-6-4.4-11.7-6.4-17.2c1.5-0.2,3.1-0.7,4.9-0.9
	c4.4-0.9,8.9-1.5,13.3-2.2C112.2,110.4,110.2,113.7,108.3,117.2z M169.1,68.2c1.1,1.3,2.4,2.6,3.5,4c2.7,3.3,5.5,6.6,8.2,10.2
	c-4,0-7.7-0.2-11.7-0.2c-4,0-8,0-11.7,0.2C161.2,77.2,165.2,72.6,169.1,68.2z M87.7,78.6C85.9,69.3,85,60.9,85,53.4
	c0-8.4,1.1-15.2,3.1-20.1c0.9-2.4,2-4.4,3.1-5.7c1.1-1.5,2.4-2.4,3.8-3.3c1.1-0.7,2-1.1,3.3-1.3c1.3-0.2,2.7-0.4,4.2-0.4
	c2.7,0,5.8,0.4,9.3,1.5c6.2,2,13.7,5.7,21.9,11.5c6.6,4.6,13.5,10.4,20.8,17.2c-1.8,1.8-3.3,3.8-5.1,5.7
	c-6.6,7.7-13.3,16.3-19.7,25.4c-8.2,0.7-16.2,1.8-23.9,3.1c-5.3,0.9-10.4,1.8-15.5,2.9C89.2,85.9,88.3,82.1,87.7,78.6z M32.5,169.6
	c-4.2-3.3-7.3-6.6-9.1-9.5c-0.9-1.5-1.5-2.9-2-4.2c-0.4-1.3-0.7-2.4-0.7-3.8c0-2.2,0.4-4.4,2-6.8c1.1-2.2,3.1-4.6,5.8-7.3
	c4.6-4.4,11.7-9.1,20.6-13.3c7.5-3.5,16.2-6.8,26.1-9.5c1.8,5.7,4,11.5,6.2,17.4c2.4,6.4,5.3,13,8.4,19.7
	c-5.8,12.6-10.8,25.2-14.6,37.1c-1.3-0.4-2.9-0.9-4.2-1.3C54.5,182.8,41,176.4,32.5,169.6z M123.5,275.4c-4.2,2.4-8.2,4-11.7,5.1
	s-6.6,1.5-9.3,1.5c-1.5,0-2.9-0.2-4.2-0.4c-1.3-0.2-2.2-0.7-3.3-1.3c-1.3-0.9-2.7-1.8-3.8-3.3c-1.8-2.2-3.3-5.3-4.4-9.7
	c-1.1-4.4-1.8-9.7-1.8-16.1c0-7.3,0.9-15.9,2.7-25.2c0.7-3.5,1.5-7.5,2.4-11.3c2.2,0.4,4.6,0.9,6.9,1.3c10.4,2,21.3,3.3,32.5,4.4
	c8,11.3,16.4,21.9,24.8,31.1c-0.9,0.9-1.8,1.8-2.7,2.4C141.7,263.4,132.2,270.5,123.5,275.4z M250.6,225.9
	c1.8,9.3,2.7,17.7,2.7,25.2c0,8.4-1.1,15.2-3.1,20.1c-0.9,2.4-2,4.4-3.1,5.7c-1.1,1.5-2.4,2.4-3.8,3.3c-1.1,0.7-2,1.1-3.3,1.3
	c-1.3,0.2-2.7,0.4-4.2,0.4c-2.7,0-5.8-0.4-9.3-1.5c-6.2-2-13.7-5.7-21.9-11.5c-6.6-4.6-13.5-10.4-20.8-17.2c1.8-1.8,3.3-3.8,5.1-5.7
	c6.6-7.7,13.3-16.3,19.7-25.4c8.2-0.7,16.2-1.8,23.9-3.1c5.3-0.9,10.4-1.8,15.5-2.9C249.1,218.6,249.9,222.4,250.6,225.9z
	 M315.3,159.2c-1.1,2.2-3.1,4.6-5.8,7.3c-4.6,4.4-11.7,9.1-20.6,13.3c-7.5,3.5-16.2,6.8-26.1,9.5c-1.8-5.7-4-11.5-6.2-17.4
	c-2.4-6.4-5.3-13-8.4-19.7c5.8-12.6,10.8-25.2,14.6-37.1c1.3,0.4,2.9,0.9,4.2,1.3c16.8,5.1,30.1,11.7,38.7,18.3
	c4.2,3.3,7.3,6.6,9.1,9.5c0.9,1.5,1.5,2.9,2,4.2c0.4,1.3,0.7,2.4,0.7,3.8C317.2,154.3,316.6,156.5,315.3,159.2z"/>
</svg>
