<?xml version="1.0" encoding="utf-8"?>
<!-- Generator: Adobe Illustrator 19.0.0, SVG Export Plug-In . SVG Version: 6.00 Build 0)  -->
<svg version="1.1" id="Layer_1" xmlns="http://www.w3.org/2000/svg" xmlns:xlink="http://www.w3.org/1999/xlink" x="0px" y="0px"
	 viewBox="0 0 1200 1200" style="enable-background:new 0 0 1200 1200;" xml:space="preserve">
<style type="text/css">
	.st0{fill:#00B4CD;}
	.st1{fill:#F7ECE7;}
</style>
<rect y="0" class="st0" width="1200" height="1200"/>
<path class="st1" d="M336,628.7h45.8c25,0,38.3,14.8,38.3,35.6c0,16.6-8.2,28.9-23.5,33.6l34.5,56.3h-25.9L371.4,700h-12.2v54.1H336
	V628.7z M381.8,678.6c8.4,0,14.6-4,14.6-14.1s-6.2-14.1-14.6-14.1h-22.6v28.3H381.8z"/>
<path class="st1" d="M447.6,708.8c0-21.2,12.4-46.6,43.4-46.6c30.1,0,42.1,25,42.1,44.6v9.1h-63.5c0.4,9.9,9.1,20.3,22.8,20.3
	c10.2,0,17.5-5.7,22.1-12.8l17.7,9.3c-7.1,12.1-19.3,22.5-41.2,22.5C460,755.4,447.6,730.3,447.6,708.8z M512.2,699.3
	c-2.2-9.7-8.2-18.6-21.3-18.6c-12.4,0-19.5,9.3-21.3,18.6H512.2z"/>
<path class="st1" d="M564,728c0-17.9,15.7-29.6,38.5-29.6h15.1v-4c0-9.9-7.5-14.4-15.7-14.4c-6.2,0-12.8,3.1-15.7,12.6l-18.8-5.3
	c4.2-14.8,17.7-25,34.5-25c21.5,0,37,9.1,37,37.8v53.9h-17.3l-2.2-11.5c-6.2,7.7-14.8,12.8-27.9,12.8C576,755.4,564,745.9,564,728z
	 M617.6,717.2v-2h-16.4c-10.4,0-16.8,4-16.8,12.8c0,4.6,3.3,9.5,10.2,9.5C605.6,737.3,617.6,729.8,617.6,717.2z"/>
<path class="st1" d="M670.5,708.8c0-25.2,15.7-46.6,43.4-46.6c18.6,0,31.7,8,39.2,25l-19,8c-4.9-10.8-11.3-13.9-20.1-13.9
	c-12.4,0-21.3,9.9-21.3,27.6c0,17.7,8.9,27.6,21.3,27.6c8.9,0,15.3-3.1,20.1-13.9l19,8c-7.3,16.8-20.4,25-39.2,25
	C686.2,755.4,670.5,734.2,670.5,708.8z"/>
<path class="st1" d="M800.9,717.7v-34.9h-22.4v-19h22.4v-22.5l22.4-13.9v36.4h39.4v19H823v35.3c0,12.6,5.5,18.3,14.8,18.3
	c6.2,0,12-2.9,18.4-10.6l7.5,17.9c-8.2,8.2-16.6,11.7-26.1,11.7C814.2,755.4,800.9,742.8,800.9,717.7z"/>
<path class="st1" d="M339.3,941.2c0-7.3,2.7-13.7,7.3-17.9c-2.9-3.3-4.6-8.2-4.6-13.9c0-8.6,4.4-15,11.1-19c-4-4.9-6.2-11-6.2-18.6
	c0-18.8,14.8-30.5,33.2-30.5c6.2,0,11.7,1.3,16.6,4l17-9.1l8.9,14.6l-12.8,6.4c2.4,4.2,3.5,9.1,3.5,14.4c0,19-14.8,30-33.2,30
	c-4.6,0-9.1-0.7-13.1-2c-2.7,1.5-4.2,4-4.2,6.8c0,4.2,3.1,6.6,8.4,6.6h18.4c19,0,31.7,9.1,31.7,26.5c0,22.3-21,31.1-41.2,31.1
	C357.3,971,339.3,961.1,339.3,941.2z M399.1,941.2c0-7.5-6.2-9.3-14.6-9.3h-12.2c-3.8,0-7.1-0.2-10.4-0.7c-1.3,2.2-2,4.9-2,8.2
	c0,8.6,8.6,12.8,20.4,12.8C390.9,952.4,399.1,949.4,399.1,941.2z M392.5,871.8c0-7.5-5.3-12.6-12.4-12.6c-7.1,0-12.4,5.1-12.4,12.6
	c0,7.3,5.3,12.1,12.4,12.1C387.4,884,392.5,879.1,392.5,871.8z"/>
<path class="st1" d="M451.1,914H479v-52.1h-23.2v-19h45.8v71.3h27.9v19h-78.4V914z M474.8,816.8c0-8,6.2-14.4,14.4-14.4
	c8.2,0,14.4,6.2,14.4,14.4c0,8-6.2,14.4-14.4,14.4C481,831.2,474.8,825,474.8,816.8z"/>
<path class="st1" d="M560.7,842.9h22.4v13.7c9.1-12.8,23-15.2,31.2-15.2c16.2,0,27.2,10.8,28.3,30.9h-21.9
	c-0.4-10.2-5.8-12.8-11.5-12.8c-14.4,0-26.1,18.6-26.1,45.9V933h-22.4V842.9z"/>
<path class="st1" d="M689.1,899v-72.2h-23.2v-19h45.4v86.4c0,15.5,6.6,18.8,13.7,18.8c9.3,0,13.5-6.4,15.1-15.2l19.5,4
	c-3.3,21.9-16.2,32.7-34.5,32.7C704.2,934.6,689.1,921.7,689.1,899z"/>
<path class="st1" d="M786.1,907.4l20.1-7.1c3.3,10.4,9.3,15,20.4,15c8.4,0,14.8-3.3,14.8-8.6c0-4.9-4.6-7.3-19-10.4
	c-18.4-4-30.6-12.8-30.6-28.9c0-16.1,15.7-26.1,32.1-26.1c17.3,0,28.6,8,35.4,20.3l-15.9,11c-4.6-9.1-11.7-12.4-19.3-12.4
	c-6,0-11.7,3.1-11.7,7.7c0,4.2,2.9,7.5,16.4,10.2c21,4.2,33.2,10.8,33.2,27.2c0,18.6-16.4,28.9-36.3,28.9
	C807.8,934.6,792.9,927.3,786.1,907.4z"/>
<path class="st1" d="M782.3,361.8c-2.4-4.6-5.8-8.6-9.7-12.4c-6.9-6.6-15.7-12.1-26.1-17c-8.6-4-18.6-7.7-29.2-10.8
	c1.1-4.2,2-8.4,2.7-12.4c2-10.4,2.9-20.1,3.1-28.9c0-10.2-1.3-19.7-4.4-27.8c-1.6-4.2-3.8-8-6.4-11.3c-2.7-3.3-6-6.2-9.7-8.4
	c-2.7-1.5-5.8-2.9-8.9-3.5c-3.1-0.7-6.2-1.1-9.3-1.1c-5.1,0-10.4,0.9-15.5,2.4c-9.1,2.9-18.4,7.7-27.7,14.4
	c-7.7,5.3-15.5,11.9-23.2,19.4c-0.9-0.9-2-1.8-2.9-2.6c-11.1-10.2-21.9-18.3-32.3-24.1c-5.3-2.9-10.6-5.3-15.7-6.8
	c-5.3-1.5-10.4-2.4-15.5-2.4c-3.1,0-6.2,0.4-9.3,1.1c-3.1,0.7-6,2-8.9,3.5c-3.8,2.2-7.1,5.1-9.7,8.4c-4,5.1-6.6,11-8.4,17.7
	c-1.8,6.6-2.4,13.7-2.4,21.4c0,9.1,1.1,18.8,3.1,28.9c0.7,4,1.8,8.2,2.7,12.4c-1.5,0.4-3.1,0.9-4.4,1.3c-18.4,5.7-33.9,13-45.6,21.9
	c-5.8,4.4-10.6,9.5-14.2,15.2c-1.8,2.9-3.1,6-4.2,9.1c-0.9,3.1-1.5,6.6-1.5,9.9c0,6,1.8,11.9,4.4,17c2.4,4.6,5.8,8.6,9.7,12.4
	c6.9,6.6,15.7,12.1,26.1,17c8.6,4,18.6,7.7,29.2,10.8c-1.1,4.2-2,8.4-2.7,12.4c-2,10.4-2.9,20.1-3.1,28.9c0,10.2,1.3,19.7,4.4,27.8
	c1.5,4.2,3.8,8,6.4,11.3c2.7,3.3,6,6.2,9.7,8.4c2.7,1.5,5.8,2.9,8.9,3.5c3.1,0.7,6.2,1.1,9.3,1.1c5.1,0,10.4-0.9,15.5-2.4
	c9.1-2.9,18.4-7.7,27.7-14.4c7.7-5.3,15.5-11.9,23.2-19.4c0.9,0.9,2,1.8,2.9,2.7c11.1,10.2,21.9,18.3,32.3,24.1
	c5.3,2.9,10.6,5.3,15.7,6.8c5.3,1.5,10.4,2.4,15.5,2.4c3.1,0,6.2-0.4,9.3-1.1c3.1-0.7,6-2,8.9-3.5c3.8-2.2,7.1-5.1,9.7-8.4
	c4-5.1,6.6-11,8.4-17.7s2.4-13.7,2.4-21.4c0-9.1-1.1-18.8-3.1-28.9c-0.7-4-1.8-8.2-2.7-12.4c1.5-0.4,3.1-0.9,4.4-1.3
	c18.4-5.7,33.9-13,45.6-21.9c5.8-4.4,10.6-9.5,14.2-15.2c1.8-2.9,3.1-6,4.2-9.1c0.9-3.1,1.5-6.6,1.5-9.9
	C787,372.9,785.2,367.1,782.3,361.8z M663,255.8c4.2-2.4,8.2-4,11.7-5.1c3.5-1.1,6.6-1.5,9.3-1.5c1.5,0,2.9,0.2,4.2,0.4
	c1.3,0.2,2.2,0.7,3.3,1.3c1.3,0.9,2.7,1.8,3.8,3.3c1.8,2.2,3.3,5.3,4.4,9.7c1.1,4.4,1.8,9.7,1.8,16.1c0,7.3-0.9,15.9-2.7,25.2
	c-0.7,3.5-1.6,7.5-2.4,11.3c-2.2-0.4-4.6-0.9-6.9-1.3c-10.4-2-21.3-3.3-32.5-4.4c-8-11.3-16.4-21.9-24.8-31.1
	c0.9-0.9,1.8-1.8,2.7-2.4C644.8,267.8,654.6,260.7,663,255.8z M684,354.1c-1.8-3.3-3.8-6.8-5.8-10.2l-9.3,5.3l9.3-5.3
	c-2-3.5-4-6.8-6-10.2c1.8,0.2,3.5,0.4,5.3,0.9c4.4,0.7,8.6,1.5,12.8,2.2c-1.5,4.9-3.3,9.7-5.3,14.6
	C684.9,352.3,684.5,353.2,684,354.1z M684,403.8c2.4,6,4.4,11.7,6.4,17.2c-1.5,0.2-3.1,0.7-4.9,0.9c-4.4,0.9-8.9,1.5-13.3,2.2
	c2-3.3,4-6.6,6-10.2C680.3,410.7,682.2,407.1,684,403.8z M659.9,403.4c-4.6,8.2-9.7,16.1-14.6,23.4c-9.1,0.7-18.4,0.9-27.7,0.9
	c-9.5,0-18.8-0.4-27.7-0.9c-5.1-7.5-10-15.2-14.6-23.4c-4.6-8.2-9.1-16.3-13.1-24.5c4-8.2,8.4-16.3,13.1-24.5
	c4.6-8.2,9.7-16.1,14.6-23.4c9.1-0.7,18.4-0.9,27.7-0.9c9.5,0,18.8,0.4,27.7,0.9c5.1,7.5,10,15.2,14.6,23.4
	c4.6,8.2,9.1,16.3,13.1,24.5C669,387,664.8,395.2,659.9,403.4z M617.6,463c-1.1-1.3-2.4-2.7-3.5-4c-2.7-3.3-5.5-6.6-8.2-10.2
	c4,0,7.7,0.2,11.7,0.2c4,0,8,0,11.7-0.2C625.3,453.9,621.4,458.6,617.6,463z M551,403.8c1.8,3.3,3.8,6.8,5.8,10.2
	c2,3.5,4,6.8,6,10.2c-1.8-0.2-3.5-0.4-5.3-0.9c-4.4-0.7-8.6-1.5-12.8-2.2c1.5-4.9,3.3-9.7,5.3-14.6
	C550.3,405.6,550.5,404.7,551,403.8z M556.7,344c-2,3.3-4,6.8-5.8,10.2c-2.4-6-4.4-11.7-6.4-17.2c1.5-0.2,3.1-0.7,4.9-0.9
	c4.4-0.9,8.9-1.5,13.3-2.2C560.7,337.1,558.7,340.4,556.7,344z M617.6,294.9c1.1,1.3,2.4,2.6,3.5,4c2.7,3.3,5.5,6.6,8.2,10.2
	c-4,0-7.7-0.2-11.7-0.2c-4,0-8,0-11.7,0.2C609.6,304,613.6,299.3,617.6,294.9z M536.1,305.3c-1.8-9.3-2.7-17.7-2.7-25.2
	c0-8.4,1.1-15.2,3.1-20.1c0.9-2.4,2-4.4,3.1-5.7c1.1-1.5,2.4-2.4,3.8-3.3c1.1-0.7,2-1.1,3.3-1.3c1.3-0.2,2.7-0.4,4.2-0.4
	c2.7,0,5.8,0.4,9.3,1.5c6.2,2,13.7,5.7,21.9,11.5c6.6,4.6,13.5,10.4,20.8,17.2c-1.8,1.8-3.3,3.8-5.1,5.7
	c-6.6,7.7-13.3,16.3-19.7,25.4c-8.2,0.7-16.2,1.8-23.9,3.1c-5.3,0.9-10.4,1.8-15.5,2.9C537.7,312.6,536.8,308.8,536.1,305.3z
	 M481,396.3c-4.2-3.3-7.3-6.6-9.1-9.5c-0.9-1.5-1.5-2.9-2-4.2c-0.4-1.3-0.7-2.4-0.7-3.8c0-2.2,0.4-4.4,2-6.8
	c1.1-2.2,3.1-4.6,5.8-7.3c4.6-4.4,11.7-9.1,20.6-13.3c7.5-3.5,16.2-6.8,26.1-9.5c1.8,5.7,4,11.5,6.2,17.4c2.4,6.4,5.3,13,8.4,19.7
	c-5.8,12.6-10.8,25.2-14.6,37.1c-1.3-0.4-2.9-0.9-4.2-1.3C502.9,409.6,489.4,403.1,481,396.3z M572,502.1c-4.2,2.4-8.2,4-11.7,5.1
	c-3.5,1.1-6.6,1.5-9.3,1.5c-1.5,0-2.9-0.2-4.2-0.4c-1.3-0.2-2.2-0.7-3.3-1.3c-1.3-0.9-2.7-1.8-3.8-3.3c-1.8-2.2-3.3-5.3-4.4-9.7
	c-1.1-4.4-1.8-9.7-1.8-16.1c0-7.3,0.9-15.9,2.7-25.2c0.7-3.5,1.6-7.5,2.4-11.3c2.2,0.4,4.6,0.9,6.9,1.3c10.4,2,21.3,3.3,32.5,4.4
	c8,11.3,16.4,21.9,24.8,31.1c-0.9,0.9-1.8,1.8-2.7,2.4C590.1,490.2,580.6,497.2,572,502.1z M699.1,452.6c1.8,9.3,2.7,17.7,2.7,25.2
	c0,8.4-1.1,15.2-3.1,20.1c-0.9,2.4-2,4.4-3.1,5.7c-1.1,1.5-2.4,2.4-3.8,3.3c-1.1,0.7-2,1.1-3.3,1.3c-1.3,0.2-2.7,0.4-4.2,0.4
	c-2.7,0-5.8-0.4-9.3-1.5c-6.2-2-13.7-5.7-21.9-11.5c-6.6-4.6-13.5-10.4-20.8-17.2c1.8-1.8,3.3-3.8,5.1-5.7
	c6.6-7.7,13.3-16.3,19.7-25.4c8.2-0.7,16.2-1.8,23.9-3.1c5.3-0.9,10.4-1.8,15.5-2.9C697.5,445.3,698.4,449.1,699.1,452.6z
	 M763.7,385.9c-1.1,2.2-3.1,4.6-5.8,7.3c-4.6,4.4-11.7,9.1-20.6,13.3c-7.5,3.5-16.2,6.8-26.1,9.5c-1.8-5.7-4-11.5-6.2-17.4
	c-2.4-6.4-5.3-13-8.4-19.7c5.8-12.6,10.8-25.2,14.6-37.1c1.3,0.4,2.9,0.9,4.2,1.3c16.8,5.1,30.1,11.7,38.7,18.3
	c4.2,3.3,7.3,6.6,9.1,9.5c0.9,1.5,1.5,2.9,2,4.2c0.4,1.3,0.7,2.4,0.7,3.8C765.7,381.1,765,383.3,763.7,385.9z"/>
</svg>
