<?xml version="1.0" encoding="utf-8"?>
<!-- Generator: Adobe Illustrator 19.0.0, SVG Export Plug-In . SVG Version: 6.00 Build 0)  -->
<svg version="1.1" id="Layer_1" xmlns="http://www.w3.org/2000/svg" xmlns:xlink="http://www.w3.org/1999/xlink" x="0px" y="0px"
	 viewBox="0 0 32 32" style="enable-background:new 0 0 32 32;" xml:space="preserve">
<style type="text/css">
	.st0{fill:#0EB5CD;}
	.st1{fill:#F7ECE7;}
</style>
<rect id="XMLID_31_" x="0" y="0" class="st0" width="32" height="32"/>
<path id="XMLID_66_" class="st1" d="M9,16.8h1.2c0.7,0,1,0.4,1,0.9c0,0.4-0.2,0.8-0.6,0.9l0.9,1.5h-0.7l-0.9-1.4H9.6v1.4H9V16.8z
	 M10.2,18.1c0.2,0,0.4-0.1,0.4-0.4c0-0.3-0.2-0.4-0.4-0.4H9.6v0.8H10.2z"/>
<path id="XMLID_63_" class="st1" d="M11.9,18.9c0-0.6,0.3-1.2,1.2-1.2c0.8,0,1.1,0.7,1.1,1.2v0.2h-1.7c0,0.3,0.2,0.5,0.6,0.5
	c0.3,0,0.5-0.2,0.6-0.3l0.5,0.2c-0.2,0.3-0.5,0.6-1.1,0.6C12.3,20.1,11.9,19.5,11.9,18.9z M13.7,18.6c-0.1-0.3-0.2-0.5-0.6-0.5
	c-0.3,0-0.5,0.2-0.6,0.5H13.7z"/>
<path id="XMLID_60_" class="st1" d="M15,19.4c0-0.5,0.4-0.8,1-0.8h0.4v-0.1c0-0.3-0.2-0.4-0.4-0.4c-0.2,0-0.3,0.1-0.4,0.3l-0.5-0.1
	c0.1-0.4,0.5-0.7,0.9-0.7c0.6,0,1,0.2,1,1v1.4h-0.5l-0.1-0.3c-0.2,0.2-0.4,0.3-0.7,0.3C15.4,20.1,15,19.9,15,19.4z M16.5,19.1
	L16.5,19.1L16,19.1c-0.3,0-0.4,0.1-0.4,0.3c0,0.1,0.1,0.3,0.3,0.3C16.2,19.7,16.5,19.5,16.5,19.1z"/>
<path id="XMLID_24_" class="st1" d="M17.9,18.9c0-0.7,0.4-1.2,1.2-1.2c0.5,0,0.8,0.2,1,0.7l-0.5,0.2c-0.1-0.3-0.3-0.4-0.5-0.4
	c-0.3,0-0.6,0.3-0.6,0.7c0,0.5,0.2,0.7,0.6,0.7c0.2,0,0.4-0.1,0.5-0.4l0.5,0.2c-0.2,0.4-0.5,0.7-1,0.7
	C18.3,20.1,17.9,19.6,17.9,18.9z"/>
<path id="XMLID_23_" class="st1" d="M21.4,19.1v-0.9h-0.6v-0.5h0.6v-0.6l0.6-0.4v1H23v0.5h-1.1v0.9c0,0.3,0.1,0.5,0.4,0.5
	c0.2,0,0.3-0.1,0.5-0.3l0.2,0.5c-0.2,0.2-0.4,0.3-0.7,0.3C21.7,20.1,21.4,19.8,21.4,19.1z"/>
<path id="XMLID_54_" class="st1" d="M9,25.1c0-0.2,0.1-0.4,0.2-0.5c-0.1-0.1-0.1-0.2-0.1-0.4c0-0.2,0.1-0.4,0.3-0.5
	c-0.1-0.1-0.2-0.3-0.2-0.5c0-0.5,0.4-0.8,0.9-0.8c0.2,0,0.3,0,0.4,0.1l0.5-0.2l0.2,0.4l-0.3,0.2C11,23,11,23.1,11,23.2
	c0,0.5-0.4,0.8-0.9,0.8C10,24,9.9,24,9.8,24c-0.1,0-0.1,0.1-0.1,0.2c0,0.1,0.1,0.2,0.2,0.2h0.5c0.5,0,0.8,0.2,0.8,0.7
	c0,0.6-0.6,0.8-1.1,0.8C9.5,25.9,9,25.6,9,25.1z M10.6,25.1c0-0.2-0.2-0.2-0.4-0.2H9.9c-0.1,0-0.2,0-0.3,0c0,0.1-0.1,0.1-0.1,0.2
	c0,0.2,0.2,0.3,0.5,0.3C10.4,25.4,10.6,25.3,10.6,25.1z M10.5,23.2c0-0.2-0.1-0.3-0.3-0.3c-0.2,0-0.3,0.1-0.3,0.3
	c0,0.2,0.1,0.3,0.3,0.3C10.3,23.6,10.5,23.4,10.5,23.2z"/>
<path id="XMLID_51_" class="st1" d="M12,24.4h0.7V23h-0.6v-0.5h1.2v1.9h0.7v0.5H12V24.4z M12.7,21.8c0-0.2,0.2-0.4,0.4-0.4
	c0.2,0,0.4,0.2,0.4,0.4c0,0.2-0.2,0.4-0.4,0.4C12.8,22.2,12.7,22,12.7,21.8z"/>
<path id="XMLID_17_" class="st1" d="M15,22.5h0.6v0.4c0.2-0.3,0.6-0.4,0.8-0.4c0.4,0,0.7,0.3,0.8,0.8h-0.6c0-0.3-0.2-0.3-0.3-0.3
	c-0.4,0-0.7,0.5-0.7,1.2v0.7H15V22.5z"/>
<path id="XMLID_16_" class="st1" d="M18.4,24V22h-0.6v-0.5H19v2.3c0,0.4,0.2,0.5,0.4,0.5c0.2,0,0.4-0.2,0.4-0.4l0.5,0.1
	c-0.1,0.6-0.4,0.9-0.9,0.9C18.8,24.9,18.4,24.6,18.4,24z"/>
<path id="XMLID_15_" class="st1" d="M21,24.2l0.5-0.2c0.1,0.3,0.2,0.4,0.5,0.4c0.2,0,0.4-0.1,0.4-0.2c0-0.1-0.1-0.2-0.5-0.3
	c-0.5-0.1-0.8-0.3-0.8-0.8c0-0.4,0.4-0.7,0.9-0.7c0.5,0,0.8,0.2,0.9,0.5l-0.4,0.3c-0.1-0.2-0.3-0.3-0.5-0.3c-0.2,0-0.3,0.1-0.3,0.2
	c0,0.1,0.1,0.2,0.4,0.3c0.6,0.1,0.9,0.3,0.9,0.7c0,0.5-0.4,0.8-1,0.8C21.5,24.9,21.1,24.7,21,24.2z"/>
<path id="XMLID_33_" class="st1" d="M20.9,9.6c-0.1-0.1-0.2-0.2-0.3-0.3c-0.2-0.2-0.4-0.3-0.7-0.5c-0.2-0.1-0.5-0.2-0.8-0.3
	c0-0.1,0.1-0.2,0.1-0.3c0.1-0.3,0.1-0.5,0.1-0.8c0-0.3,0-0.5-0.1-0.7c0-0.1-0.1-0.2-0.2-0.3c-0.1-0.1-0.2-0.2-0.3-0.2
	c-0.1,0-0.2-0.1-0.2-0.1c-0.1,0-0.2,0-0.2,0c-0.1,0-0.3,0-0.4,0.1c-0.2,0.1-0.5,0.2-0.7,0.4c-0.2,0.1-0.4,0.3-0.6,0.5
	c0,0-0.1,0-0.1-0.1c-0.3-0.3-0.6-0.5-0.9-0.6c-0.1-0.1-0.3-0.1-0.4-0.2c-0.1,0-0.3-0.1-0.4-0.1c-0.1,0-0.2,0-0.2,0
	c-0.1,0-0.2,0.1-0.2,0.1C14.1,6.3,14,6.4,14,6.4c-0.1,0.1-0.2,0.3-0.2,0.5c0,0.2-0.1,0.4-0.1,0.6c0,0.2,0,0.5,0.1,0.8
	c0,0.1,0,0.2,0.1,0.3c0,0-0.1,0-0.1,0c-0.5,0.2-0.9,0.3-1.2,0.6c-0.2,0.1-0.3,0.3-0.4,0.4c0,0.1-0.1,0.2-0.1,0.2c0,0.1,0,0.2,0,0.3
	c0,0.2,0,0.3,0.1,0.5c0.1,0.1,0.2,0.2,0.3,0.3c0.2,0.2,0.4,0.3,0.7,0.5c0.2,0.1,0.5,0.2,0.8,0.3c0,0.1-0.1,0.2-0.1,0.3
	c-0.1,0.3-0.1,0.5-0.1,0.8c0,0.3,0,0.5,0.1,0.7c0,0.1,0.1,0.2,0.2,0.3c0.1,0.1,0.2,0.2,0.3,0.2c0.1,0,0.2,0.1,0.2,0.1
	c0.1,0,0.2,0,0.2,0c0.1,0,0.3,0,0.4-0.1c0.2-0.1,0.5-0.2,0.7-0.4c0.2-0.1,0.4-0.3,0.6-0.5c0,0,0.1,0,0.1,0.1
	c0.3,0.3,0.6,0.5,0.9,0.6c0.1,0.1,0.3,0.1,0.4,0.2c0.1,0,0.3,0.1,0.4,0.1c0.1,0,0.2,0,0.2,0c0.1,0,0.2-0.1,0.2-0.1
	c0.1-0.1,0.2-0.1,0.3-0.2c0.1-0.1,0.2-0.3,0.2-0.5c0-0.2,0.1-0.4,0.1-0.6c0-0.2,0-0.5-0.1-0.8c0-0.1,0-0.2-0.1-0.3c0,0,0.1,0,0.1,0
	c0.5-0.2,0.9-0.3,1.2-0.6c0.2-0.1,0.3-0.3,0.4-0.4c0-0.1,0.1-0.2,0.1-0.2c0-0.1,0-0.2,0-0.3C21,9.9,20.9,9.8,20.9,9.6z M17.7,6.8
	c0.1-0.1,0.2-0.1,0.3-0.1c0.1,0,0.2,0,0.2,0c0,0,0.1,0,0.1,0c0,0,0.1,0,0.1,0c0,0,0.1,0,0.1,0.1c0,0.1,0.1,0.1,0.1,0.3
	c0,0.1,0,0.3,0,0.4c0,0.2,0,0.4-0.1,0.7c0,0.1,0,0.2-0.1,0.3c-0.1,0-0.1,0-0.2,0c-0.3-0.1-0.6-0.1-0.9-0.1c-0.2-0.3-0.4-0.6-0.7-0.8
	c0,0,0,0,0.1-0.1C17.2,7.1,17.5,7,17.7,6.8z M18.2,9.4c0-0.1-0.1-0.2-0.2-0.3l-0.2,0.1l0.2-0.1C18,9.1,18,9,17.9,8.9
	c0,0,0.1,0,0.1,0c0.1,0,0.2,0,0.3,0.1C18.4,9.1,18.3,9.2,18.2,9.4C18.3,9.4,18.3,9.4,18.2,9.4z M18.2,10.8c0.1,0.2,0.1,0.3,0.2,0.5
	c0,0-0.1,0-0.1,0c-0.1,0-0.2,0-0.4,0.1c0.1-0.1,0.1-0.2,0.2-0.3C18.1,11,18.2,10.9,18.2,10.8z M17.6,10.8c-0.1,0.2-0.3,0.4-0.4,0.6
	c-0.2,0-0.5,0-0.7,0c-0.3,0-0.5,0-0.7,0c-0.1-0.2-0.3-0.4-0.4-0.6c-0.1-0.2-0.2-0.4-0.3-0.7c0.1-0.2,0.2-0.4,0.3-0.7
	c0.1-0.2,0.3-0.4,0.4-0.6c0.2,0,0.5,0,0.7,0c0.3,0,0.5,0,0.7,0c0.1,0.2,0.3,0.4,0.4,0.6c0.1,0.2,0.2,0.4,0.3,0.7
	C17.8,10.3,17.7,10.5,17.6,10.8z M16.5,12.3c0,0-0.1-0.1-0.1-0.1c-0.1-0.1-0.1-0.2-0.2-0.3c0.1,0,0.2,0,0.3,0c0.1,0,0.2,0,0.3,0
	C16.7,12.1,16.6,12.2,16.5,12.3z M14.7,10.8c0,0.1,0.1,0.2,0.2,0.3c0.1,0.1,0.1,0.2,0.2,0.3c0,0-0.1,0-0.1,0c-0.1,0-0.2,0-0.3-0.1
	C14.6,11.1,14.6,11,14.7,10.8C14.7,10.8,14.7,10.8,14.7,10.8z M14.8,9.2c-0.1,0.1-0.1,0.2-0.2,0.3c-0.1-0.2-0.1-0.3-0.2-0.5
	c0,0,0.1,0,0.1,0c0.1,0,0.2,0,0.4-0.1C15,9,14.9,9.1,14.8,9.2z M16.5,7.9c0,0,0.1,0.1,0.1,0.1c0.1,0.1,0.1,0.2,0.2,0.3
	c-0.1,0-0.2,0-0.3,0c-0.1,0-0.2,0-0.3,0C16.3,8.1,16.4,8,16.5,7.9z M14.3,8.1c0-0.2-0.1-0.5-0.1-0.7c0-0.2,0-0.4,0.1-0.5
	c0-0.1,0.1-0.1,0.1-0.2c0,0,0.1-0.1,0.1-0.1c0,0,0.1,0,0.1,0c0,0,0.1,0,0.1,0c0.1,0,0.2,0,0.2,0c0.2,0.1,0.4,0.2,0.6,0.3
	c0.2,0.1,0.4,0.3,0.6,0.5c0,0-0.1,0.1-0.1,0.2c-0.2,0.2-0.4,0.4-0.5,0.7c-0.2,0-0.4,0-0.6,0.1c-0.1,0-0.3,0-0.4,0.1
	C14.3,8.3,14.3,8.2,14.3,8.1z M12.8,10.6c-0.1-0.1-0.2-0.2-0.2-0.3c0,0,0-0.1-0.1-0.1c0,0,0-0.1,0-0.1c0-0.1,0-0.1,0.1-0.2
	c0-0.1,0.1-0.1,0.2-0.2c0.1-0.1,0.3-0.2,0.5-0.4c0.2-0.1,0.4-0.2,0.7-0.3c0,0.2,0.1,0.3,0.2,0.5c0.1,0.2,0.1,0.3,0.2,0.5
	c-0.2,0.3-0.3,0.7-0.4,1c0,0-0.1,0-0.1,0C13.4,10.9,13.1,10.8,12.8,10.6z M15.3,13.4c-0.1,0.1-0.2,0.1-0.3,0.1c-0.1,0-0.2,0-0.2,0
	c0,0-0.1,0-0.1,0c0,0-0.1,0-0.1,0c0,0-0.1,0-0.1-0.1c0-0.1-0.1-0.1-0.1-0.3c0-0.1,0-0.3,0-0.4c0-0.2,0-0.4,0.1-0.7
	c0-0.1,0-0.2,0.1-0.3c0.1,0,0.1,0,0.2,0c0.3,0.1,0.6,0.1,0.9,0.1c0.2,0.3,0.4,0.6,0.7,0.8c0,0,0,0-0.1,0.1
	C15.7,13.1,15.5,13.3,15.3,13.4z M18.6,12.1c0,0.2,0.1,0.5,0.1,0.7c0,0.2,0,0.4-0.1,0.5c0,0.1-0.1,0.1-0.1,0.2c0,0-0.1,0.1-0.1,0.1
	c0,0-0.1,0-0.1,0c0,0-0.1,0-0.1,0c-0.1,0-0.2,0-0.2,0c-0.2-0.1-0.4-0.2-0.6-0.3c-0.2-0.1-0.4-0.3-0.6-0.5c0,0,0.1-0.1,0.1-0.2
	c0.2-0.2,0.4-0.4,0.5-0.7c0.2,0,0.4,0,0.6-0.1c0.1,0,0.3,0,0.4-0.1C18.6,11.9,18.6,12,18.6,12.1z M20.4,10.3c0,0.1-0.1,0.1-0.2,0.2
	c-0.1,0.1-0.3,0.2-0.5,0.4c-0.2,0.1-0.4,0.2-0.7,0.3c0-0.2-0.1-0.3-0.2-0.5c-0.1-0.2-0.1-0.3-0.2-0.5c0.2-0.3,0.3-0.7,0.4-1
	c0,0,0.1,0,0.1,0c0.4,0.1,0.8,0.3,1,0.5c0.1,0.1,0.2,0.2,0.2,0.3c0,0,0,0.1,0.1,0.1c0,0,0,0.1,0,0.1C20.4,10.2,20.4,10.2,20.4,10.3z
	"/>
</svg>
