<?xml version="1.0" encoding="iso-8859-1"?>
<!-- Generator: Adobe Illustrator 19.0.0, SVG Export Plug-In . SVG Version: 6.00 Build 0)  -->
<svg version="1.1" id="Capa_1" xmlns="http://www.w3.org/2000/svg" xmlns:xlink="http://www.w3.org/1999/xlink" x="0px" y="0px"
	 viewBox="0 0 512 512" style="enable-background:new 0 0 512 512;" xml:space="preserve">
<g>
	<g>
		<path fill="#535353" stroke="#535353" d="M496,191.992c8.832,0,16-7.168,16-16v-32c0-5.92-3.264-11.328-8.48-14.112l-240-128c-4.704-2.496-10.336-2.496-15.072,0
			l-240,128C3.264,132.664,0,138.072,0,143.992v32c0,8.832,7.168,16,16,16h16v224c-17.632,0-32,14.336-32,32v48
			c0,8.832,7.168,16,16,16h480c8.832,0,16-7.168,16-16v-48c0-17.664-14.368-32-32-32v-224H496z M480,479.992H32v-32h448V479.992z
			 M64,415.992v-224h32v224H64z M128,415.992v-224h128h128v224H256H128z M416,415.992v-224h32v224H416z M32,159.992v-6.4L256,34.136
			l224,119.456v6.4H32z"/>
	</g>
</g>
<g>
	<g>
		<path fill="#535353" stroke="#535353" d="M256,287.992c-8.832,0-16-7.2-16-16s7.168-16,16-16h32c8.832,0,16-7.168,16-16c0-8.832-7.168-16-16-16h-16v-16
			c0-8.832-7.168-16-16-16c-8.832,0-16,7.168-16,16v18.944c-18.592,6.624-32,24.224-32,45.056c0,26.464,21.536,48,48,48
			c8.832,0,16,7.2,16,16s-7.168,16-16,16h-32c-8.832,0-16,7.168-16,16c0,8.832,7.168,16,16,16h16v16c0,8.832,7.168,16,16,16
			c8.832,0,16-7.168,16-16v-18.944c18.592-6.624,32-24.224,32-45.056C304,309.528,282.464,287.992,256,287.992z"/>
	</g>
</g>
<g>
</g>
<g>
</g>
<g>
</g>
<g>
</g>
<g>
</g>
<g>
</g>
<g>
</g>
<g>
</g>
<g>
</g>
<g>
</g>
<g>
</g>
<g>
</g>
<g>
</g>
<g>
</g>
<g>
</g>
</svg>
