<svg id="Capa_1" enable-background="new 0 0 512 512" height="512" viewBox="0 0 512 512" width="512" xmlns="http://www.w3.org/2000/svg"><g><g><path fill="#535353" stroke="#535353" d="m63.85 142.032h151.974l31.677 31.677c2.184 2.183 5.081 3.339 8.037 3.339 1.469 0 2.951-.285 4.367-.872 4.269-1.768 7.026-5.896 7.026-10.515v-25.229c11.729-4.039 19.917-15.252 19.917-27.902v-83.018c0-16.268-13.234-29.502-29.502-29.502h-193.496c-16.268 0-29.502 13.234-29.502 29.502v6.062c0 4.143 3.357 7.5 7.5 7.5s7.5-3.357 7.5-7.5v-6.062c0-7.996 6.506-14.502 14.502-14.502h193.496c7.996 0 14.502 6.506 14.502 14.502v83.018c0 6.815-4.83 12.781-11.484 14.186-4.887 1.03-8.433 5.429-8.433 10.459v19.751l-26.754-26.753c-2.021-2.025-4.712-3.141-7.574-3.141h-153.753c-7.996 0-14.502-6.506-14.502-14.502v-41.831c0-4.143-3.357-7.5-7.5-7.5s-7.5 3.357-7.5 7.5v41.831c0 16.267 13.234 29.502 29.502 29.502z"/><path fill="#535353" stroke="#535353" d="m504.5 345.939c4.143 0 7.5-3.357 7.5-7.5v-5.774c0-23.035-15.437-43.654-37.539-50.144l-40.664-11.939c-1.172-1.074-2.523-1.967-4.016-2.632l-8.48-3.778c-2.259-1.006-4.652-1.516-7.036-1.546v-17.846c13.293-9.812 22.575-24.82 24.73-42.103 6.721-1.899 11.659-8.087 11.659-15.406v-53.672c0-12.57-9.854-22.882-22.244-23.616-1.019-12.113-11.203-21.657-23.575-21.657h-55.683c-24.642 0-44.688 20.047-44.688 44.688v54.257c0 7.32 4.938 13.508 11.659 15.407 2.158 17.281 11.439 32.288 24.73 42.1v17.818c-2.363.045-4.731.56-6.959 1.56l-8.317 3.734c-1.48.665-2.821 1.555-3.985 2.625l-40.91 12.007c-22.104 6.487-37.543 27.108-37.543 50.146v40.729c-5.215-4.262-11.285-7.496-17.915-9.442-.659-.193 3.184.583-58.393-11.154v-.162c9.729-1.791 19.34-4.318 28.736-7.58 20.823-7.229 34.376-28.649 23.765-64.044-3.509-11.704-5.289-23.833-5.293-36.081-.014-45.808-37.292-83.074-83.1-83.074h-.001c-45.807 0-83.085 37.267-83.1 83.106-.004 12.218-1.784 24.347-5.292 36.049-10.501 35.037 2.632 56.707 23.764 64.044 9.389 3.26 18.992 5.785 28.713 7.576-61.312 11.869-57.723 11.133-58.366 11.322-21.583 6.333-36.657 26.467-36.657 48.962v70.809c0 15.658 12.681 28.262 28.262 28.262h.058c.129 0 455.29-.458 455.419-.458 15.584 0 28.262-12.678 28.262-28.262v-109.769c0-4.143-3.357-7.5-7.5-7.5s-7.5 3.357-7.5 7.5v17.348h-87.667l-13.269-59.164 7.179-12.866c2.849-.551 5.577-1.914 7.832-4.08l23.048-22.444c1.478-1.439 2.617-3.141 3.383-4.99l32.73 9.609c15.757 4.626 26.763 19.328 26.763 35.751v5.774c0 4.143 3.357 7.5 7.5 7.5zm-185.036-212.926c0-16.37 13.318-29.688 29.688-29.688h55.683c4.774 0 8.659 3.884 8.659 8.658 0 7.145 5.812 12.957 12.957 12.957h.544c4.774 0 8.659 3.884 8.659 8.658v27.785h-3.666c-2.064 0-3.743-1.679-3.743-3.743v-6.153c0-13.252-13.012-22.5-25.447-18.391-16.27 5.377-34.189 5.378-50.48-.003-12.546-4.147-25.444 5.18-25.444 18.392v6.155c0 2.064-1.68 3.743-3.744 3.743h-3.665v-28.37zm11.274 64.93c-.344-5.42-4.854-9.666-10.268-9.666-.556 0-1.007-.452-1.007-1.007v-10.887h3.665c10.336 0 18.744-8.408 18.744-18.743v-6.155c0-2.97 2.884-5.09 5.761-4.143 19.306 6.379 40.568 6.377 59.872-.004 2.83-.94 5.739 1.167 5.739 4.148v6.153c0 10.335 8.408 18.743 18.743 18.743h3.666v10.887c0 .555-.452 1.007-1.008 1.007-5.413 0-9.923 4.246-10.267 9.669-1.553 24.631-22.119 43.926-46.821 43.926-24.7.001-45.265-19.294-46.819-43.928zm52.977 125.089h-12.442l-4.829-8.294 11.683-9.759 10.603 9.066zm10.244 67.817h-32.839l11.845-52.817h9.148zm-15.857-105.113-22.248-16.625v-16.176c6.77 2.546 14.089 3.936 21.705 3.936 7.617 0 14.936-1.39 21.706-3.936v16.413zm-38.063-7.897c.938-.423 2.032-.301 2.858.315 7.442 5.561 12.424 9.284 23.194 17.332l-10.78 9.005c-.054.045-.116.075-.18.092-.032.004-.064.009-.096.014-.115.004-.23-.034-.32-.114l-22.91-22.946zm-268.808 53.049c-18.959-6.583-20.057-26.42-14.314-45.567 3.926-13.099 5.919-26.675 5.923-40.383.013-37.539 30.562-68.079 68.101-68.079s68.088 30.54 68.1 68.11c.004 13.675 1.997 27.251 5.924 40.352 5.742 19.152 4.643 38.985-14.315 45.567-38.504 13.367-80.915 13.369-119.419 0zm80.601 23.921v2.652c-8.217 17.68-33.707 17.606-41.805-.161v-2.492c13.731 1.452 27.742 1.488 41.805.001zm95.048 139.799c0 1.04-.817 1.888-1.86 1.93-.026.001-.052.002-.078.004-.005 0-.01 0-.015.001-.055.002-.112.005-.171.009l-216.467.438h-.026c-7.303 0-13.263-5.908-13.263-13.262v-70.809c0-15.77 10.493-29.897 25.56-34.475l57.775-11.174c14.536 24.56 50.611 24.486 65.166.164l57.833 11.011c15.491 4.711 25.546 18.956 25.546 34.472zm11.26-161.941c0-16.425 11.007-31.127 26.768-35.753l32.988-9.682c.739 1.784 1.826 3.432 3.23 4.837l23.036 23.071c.025.025.051.05.076.075 2.146 2.089 4.745 3.438 7.478 4.037l7.283 12.508-13.251 59.087h-87.608zm238.86 73.182v77.421c0 7.312-5.949 13.262-13.262 13.262h-221.965c.071-.631.107-1.273.107-1.924v-81.69c0-2.373-.165-4.733-.492-7.068 32.921-.001 183.763-.001 235.612-.001zm-96.353-101.892c-.089.085-.201.128-.314.128-.059-.012-.118-.024-.177-.035-.043-.018-.084-.042-.122-.074l-9.974-8.528 22.247-17.226c.826-.642 1.934-.774 2.889-.349l8.395 3.741z"/></g></g></svg>