<?xml version="1.0" encoding="iso-8859-1"?>
<!-- Generator: Adobe Illustrator 19.0.0, SVG Export Plug-In . SVG Version: 6.00 Build 0)  -->
<svg version="1.1" id="Layer_1" xmlns="http://www.w3.org/2000/svg" xmlns:xlink="http://www.w3.org/1999/xlink" x="0px" y="0px"
	 viewBox="0 0 301.015 301.015" style="enable-background:new 0 0 301.015 301.015;" xml:space="preserve">
<g>
	<g>
		<g>
			<path fill="#535353" stroke="#535353" d="M256.36,118.495l-9.62-3.965c-6.89-3.835-12.35-9.425-15.73-16.12l-0.78-1.56c-2.535-5.85-3.705-10.92-3.705-15.925
				V4.875c0-2.665-2.21-4.875-4.875-4.875h-32.89c-2.665,0-4.875,2.21-4.875,4.875v36.4c0,10.335-3.77,19.37-10.66,25.48
				c-7.15,6.305-15.08,9.165-23.53,8.515c-0.13,0-0.26,0-0.39,0c-8.385,0-17.81-4.225-23.53-10.53
				c-0.065-0.065-0.13-0.13-0.195-0.195c-6.435-6.24-9.165-13.715-8.45-22.815c0-0.13,0-0.26,0-0.39V4.94
				c0-2.665-2.21-4.875-4.875-4.875h-32.89c-2.665,0-4.875,2.21-4.875,4.875v76.05c0,6.37-1.3,11.765-3.835,16.12
				c0,0.065-0.065,0.065-0.065,0.13l-0.455,0.845c0,0.065-0.065,0.065-0.065,0.13c-3.64,7.15-9.36,12.805-16.64,16.38l-8.97,4.03
				c-1.755,0.78-2.86,2.47-2.86,4.42V296.14c0,2.665,2.21,4.875,4.875,4.875h208c2.665,0,4.875-2.21,4.94-4.875V122.98
				C259.415,121.03,258.18,119.275,256.36,118.495z M249.6,291.265H51.415v-165.1l6.175-2.73c0,0,0.065-0.065,0.13-0.065
				c9.165-4.55,16.445-11.7,21.06-20.735l0.39-0.715c3.38-5.85,5.07-12.87,5.07-20.93V9.815h23.14v31.33
				c-0.845,11.83,2.925,21.97,11.245,30.225c7.54,8.255,19.435,13.585,30.485,13.65c11.05,0.78,21.32-2.86,30.55-10.92
				c9.035-7.995,13.975-19.63,13.975-32.76V9.815h23.14V80.99c0,6.435,1.43,12.805,4.55,19.955c0.065,0.065,0.065,0.195,0.13,0.26
				l0.845,1.69c4.29,8.515,11.245,15.6,19.955,20.345c0.195,0.13,0.325,0.195,0.52,0.26l6.825,2.795V291.265z"/>
			<path fill="#535353" stroke="#535353" d="M223.73,124.345c-8.45-4.225-13.715-11.31-19.76-19.5l-0.65-0.91c-1.625-2.21-4.68-2.665-6.825-1.04
				c-2.21,1.625-2.665,4.68-1.04,6.825l0.65,0.91c6.565,8.84,12.74,17.225,23.335,22.425c0.715,0.39,1.43,0.52,2.145,0.52
				c1.82,0,3.51-0.975,4.355-2.73C227.11,128.44,226.135,125.515,223.73,124.345z"/>
			<path fill="#535353" stroke="#535353" d="M130.715,150.93c-1.69-0.78-3.77-0.455-5.2,0.78l-22.23,19.435c-2.015,1.755-2.21,4.875-0.455,6.89
				c1.755,2.015,4.875,2.21,6.89,0.455l14.105-12.35v75.79c0,2.665,2.21,4.875,4.875,4.875c2.665,0,4.875-2.145,4.875-4.875v-86.58
				C133.575,153.465,132.47,151.71,130.715,150.93z"/>
			<path fill="#535353" stroke="#535353" d="M184.99,150.93c-1.755-0.78-3.835-0.455-5.265,0.845L158.34,171.21c-2.015,1.82-2.145,4.875-0.325,6.89
				c1.82,2.015,4.875,2.145,6.89,0.325L178.1,166.4v75.53c0,2.665,2.21,4.875,4.875,4.875c2.665,0,4.875-2.145,4.94-4.81v-86.58
				C187.915,153.465,186.745,151.71,184.99,150.93z"/>
			<circle cx="234.195" cy="136.109" r="4.875"/>
		</g>
	</g>
</g>
<g>
</g>
<g>
</g>
<g>
</g>
<g>
</g>
<g>
</g>
<g>
</g>
<g>
</g>
<g>
</g>
<g>
</g>
<g>
</g>
<g>
</g>
<g>
</g>
<g>
</g>
<g>
</g>
<g>
</g>
</svg>
