<?xml version="1.0" encoding="iso-8859-1"?>
<!-- Generator: Adobe Illustrator 19.0.0, SVG Export Plug-In . SVG Version: 6.00 Build 0)  -->
<svg version="1.1" id="Capa_1" xmlns="http://www.w3.org/2000/svg" xmlns:xlink="http://www.w3.org/1999/xlink" x="0px" y="0px"
	 viewBox="0 0 480 480" style="enable-background:new 0 0 480 480;" xml:space="preserve">
<g>
	<g>
		<path fill="#535353" stroke="#535353" d="M240,280c-22.091,0-40,17.909-40,40c0.026,22.08,17.92,39.974,40,40c22.091,0,40-17.909,40-40
			C280,297.909,262.091,280,240,280z M240,344c-13.255,0-24-10.745-24-24s10.745-24,24-24s24,10.745,24,24S253.255,344,240,344z"/>
	</g>
</g>
<g>
	<g>
		<path fill="#535353" stroke="#535353" d="M272,368h-64c-22.08,0.026-39.974,17.92-40,40v64c0,4.418,3.582,8,8,8h128c4.418,0,8-3.582,8-8v-64
			C311.974,385.92,294.08,368.026,272,368z M296,464h-16v-32c0-4.418-3.582-8-8-8s-8,3.582-8,8v32h-48v-32c0-4.418-3.582-8-8-8
			s-8,3.582-8,8v32h-16v-56c0-13.255,10.745-24,24-24h64c13.255,0,24,10.745,24,24V464z"/>
	</g>
</g>
<g>
	<g>
		<path fill="#535353" stroke="#535353" d="M80,280c-22.091,0-40,17.909-40,40c0.026,22.08,17.92,39.974,40,40c22.091,0,40-17.909,40-40
			C120,297.909,102.091,280,80,280z M80,344c-13.255,0-24-10.745-24-24s10.745-24,24-24s24,10.745,24,24S93.255,344,80,344z"/>
	</g>
</g>
<g>
	<g>
		<path fill="#535353" stroke="#535353" d="M400,280c-22.091,0-40,17.909-40,40c0.026,22.08,17.92,39.974,40,40c22.091,0,40-17.909,40-40
			C440,297.909,422.091,280,400,280z M400,344c-13.255,0-24-10.745-24-24s10.745-24,24-24s24,10.745,24,24S413.255,344,400,344z"/>
	</g>
</g>
<g>
	<g>
		<path fill="#535353" stroke="#535353" d="M112,368H48c-22.08,0.026-39.974,17.92-40,40v64c0,4.418,3.582,8,8,8h128c4.418,0,8-3.582,8-8v-64
			C151.974,385.92,134.08,368.026,112,368z M136,464h-16v-32c0-4.418-3.582-8-8-8s-8,3.582-8,8v32H56v-32c0-4.418-3.582-8-8-8
			s-8,3.582-8,8v32H24v-56c0-13.255,10.745-24,24-24h64c13.255,0,24,10.745,24,24V464z"/>
	</g>
</g>
<g>
	<g>
		<path fill="#535353" stroke="#535353" d="M432,368h-64c-22.08,0.026-39.974,17.92-40,40v64c0,4.418,3.582,8,8,8h128c4.418,0,8-3.582,8-8v-64
			C471.974,385.92,454.08,368.026,432,368z M456,464h-16v-32c0-4.418-3.582-8-8-8s-8,3.582-8,8v32h-48v-32c0-4.418-3.582-8-8-8
			s-8,3.582-8,8v32h-16v-56c0-13.255,10.745-24,24-24h64c13.255,0,24,10.745,24,24V464z"/>
	</g>
</g>
<g>
	<g>
		<path fill="#535353" stroke="#535353" d="M456,0H24C10.745,0,0,10.745,0,24s10.745,24,24,24v208c0,4.418,3.582,8,8,8h416c4.418,0,8-3.582,8-8V48
			c13.255,0,24-10.745,24-24S469.255,0,456,0z M440,248H40V48h400V248z M456,32H24c-4.418,0-8-3.582-8-8s3.582-8,8-8h432
			c4.418,0,8,3.582,8,8S460.418,32,456,32z"/>
	</g>
</g>
<g>
	<g>
		<path fill="#535353" stroke="#535353" d="M357.46,82.344c-3.1-2.994-8.015-2.994-11.116,0L240,188.688l-54.344-54.344c-3.124-3.123-8.188-3.123-11.312,0l-68,68
			c-3.124,3.125-3.123,8.19,0.002,11.314c1.5,1.499,3.534,2.342,5.654,2.342c2.122,0,4.156-0.844,5.656-2.344L180,151.312
			l54.344,54.344c3.124,3.123,8.188,3.123,11.312,0l112-112C360.726,90.478,360.638,85.414,357.46,82.344z"/>
	</g>
</g>
<g>
</g>
<g>
</g>
<g>
</g>
<g>
</g>
<g>
</g>
<g>
</g>
<g>
</g>
<g>
</g>
<g>
</g>
<g>
</g>
<g>
</g>
<g>
</g>
<g>
</g>
<g>
</g>
<g>
</g>
</svg>
