<?xml version="1.0" encoding="iso-8859-1"?>
<!-- Generator: Adobe Illustrator 19.0.0, SVG Export Plug-In . SVG Version: 6.00 Build 0)  -->
<svg version="1.1" id="Capa_1" xmlns="http://www.w3.org/2000/svg" xmlns:xlink="http://www.w3.org/1999/xlink" x="0px" y="0px"
	 viewBox="0 0 512.001 512.001" style="enable-background:new 0 0 512.001 512.001;" xml:space="preserve">
<g>
	<g>
		<path fill="#535353" stroke="#535353" stroke-width="1" d="M504.923,324.457c-3.619-3.899-8.215-6.565-13.276-7.765c2.92-8.968,1.033-19.22-5.825-26.607
			c-4.878-5.254-11.51-8.294-18.674-8.559c-0.216-0.008-0.43-0.005-0.645-0.008c0.329-6.955-2.02-14.032-7.119-19.524
			c-4.818-5.19-11.348-8.214-18.412-8.543c0.637-7.297-1.688-14.825-7.051-20.602c-4.877-5.254-11.51-8.294-18.674-8.559
			c-7.156-0.266-14.002,2.276-19.255,7.156l-3.56,3.307c-5.171-3.732-11.358-5.852-17.93-6.069c-3.258-0.099-6.466,0.27-9.549,1.071
			l-14.547-17.393c-5.163-6.172-14.387-6.995-20.561-1.839l-3.791,3.166L173.791,32.15c-2.662-3.173-7.39-3.588-10.565-0.927
			c-3.173,2.661-3.588,7.392-0.927,10.564l0.269,0.32L3.948,174.575c-2.676,2.235-4.11,5.515-3.933,8.998
			c0.178,3.483,1.937,6.6,4.829,8.553l60.246,40.661l31.852,69.783c1.437,3.148,4.196,5.392,7.571,6.157
			c0.82,0.187,1.645,0.277,2.462,0.277c2.545,0,5.015-0.887,7.024-2.568l158.796-132.904l41.747,49.774l-5.259,4.391
			c-2.995,2.502-4.836,6.021-5.185,9.907c-0.348,3.888,0.84,7.678,3.344,10.67l14.776,17.666c-1.992,3.029-3.612,6.297-4.786,9.726
			l-29.479,72.511L146.181,457.185c-4.876,3.751-6.747,9.936-4.766,15.76c1.98,5.823,7.234,9.585,13.384,9.585h155.845
			c3.79,0,7.481-1.557,10.127-4.273l42.316-43.447l44.546-3.201c0.274-0.02,0.547-0.054,0.817-0.103
			c9.93-1.824,19.133-6.426,26.579-13.276l18.713-16.988c0.144-0.112,0.293-0.215,0.433-0.333l12.032-10.091
			c5.011-0.868,9.671-3.159,13.485-6.701l23.844-22.151C514.256,352.007,514.878,335.181,504.923,324.457z M108.405,291.56
			l-30.138-66.028c-0.842-1.844-2.175-3.417-3.85-4.546l-56.766-38.312L172.206,53.6l90.952,108.44L108.405,291.56z
			 M434.384,289.516c0.29-5.806-1.474-11.352-4.987-15.832l2.266-2.105c2.316-2.151,5.333-3.264,8.492-3.156
			c3.16,0.117,6.085,1.458,8.236,3.775c4.148,4.469,4.174,11.313,0.258,15.814c-0.255,0.22-0.509,0.44-0.757,0.67l-23.422,21.76
			c-0.345,0.321-0.68,0.649-1.004,0.983c-1.761,1.347-3.841,2.151-6.041,2.356c1.676-0.941,3.28-2.068,4.752-3.435l4.344-4.036
			C431.272,301.898,434.064,295.933,434.384,289.516z M406.2,242.436c2.316-2.152,5.325-3.283,8.493-3.156
			c3.16,0.116,6.085,1.457,8.236,3.774c4.439,4.781,4.161,12.283-0.618,16.723l-3.076,2.857l-16.129-17.324L406.2,242.436z
			 M319.202,238.955l19.954-16.664l12.223,14.613c-0.374,0.323-0.745,0.652-1.108,0.993l-17.879,16.828L319.202,238.955z
			 M424.913,407.159c-5.3,4.875-11.788,8.162-18.784,9.521l-46.961,3.375c-1.832,0.132-3.553,0.932-4.834,2.247l-44.053,45.23
			h-152.95l141.376-108.704c0.104-0.08,0.197-0.168,0.296-0.252c0.068-0.058,0.137-0.112,0.202-0.172
			c0.239-0.219,0.462-0.45,0.666-0.693c0.04-0.048,0.077-0.099,0.116-0.148c0.187-0.234,0.358-0.476,0.514-0.727
			c0.029-0.047,0.06-0.092,0.089-0.14c0.177-0.3,0.33-0.609,0.462-0.927c0.009-0.021,0.021-0.039,0.03-0.06l30.327-74.598
			c0.059-0.144,0.112-0.289,0.162-0.436c1.473-4.383,4.045-8.388,7.439-11.582l21.539-20.272c3.699-3.48,8.481-5.314,13.458-5.143
			c4.712,0.155,9.044,2.106,12.197,5.492l0.802,0.861l0.001,0.001l0.001,0.001l26.341,28.293c0.002,0.003,0.004,0.005,0.007,0.008
			c0.002,0.002,0.004,0.004,0.006,0.006c0.001,0.001,0.002,0.003,0.003,0.004c0.002,0.002,0.004,0.004,0.006,0.006l3.733,4.009
			c1.603,1.722,2.42,4,2.3,6.411c-0.124,2.49-1.222,4.818-3.092,6.555l-4.343,4.035c-3.007,2.792-7.281,3.319-10.596,1.625
			c-0.082-0.045-0.168-0.081-0.251-0.123c-0.772-0.427-1.488-0.979-2.117-1.655l-10.936-11.762
			c-3.909-4.205-9.249-6.626-15.035-6.82c-5.94-0.199-11.612,1.954-15.977,6.063c-1.629,1.533-2.488,3.714-2.344,5.945
			c0.181,2.794,0.1,5.471-0.228,8.05c-0.018,0.134-0.04,0.268-0.051,0.403c-0.88,6.389-3.333,12.157-7.424,17.467
			c-2.528,3.281-1.918,7.989,1.363,10.517c3.28,2.526,7.989,1.917,10.517-1.364c2.542-3.298,4.634-6.771,6.29-10.399l68.408,81.786
			c0.03,0.036,0.065,0.068,0.096,0.104L424.913,407.159z M444.795,389.109l-75.122-89.81c0.071-1.071,0.121-2.148,0.131-3.238
			c0.867-0.325,1.789-0.484,2.729-0.448c1.765,0.059,3.382,0.784,4.551,2.042l10.936,11.762c1.119,1.204,2.338,2.264,3.631,3.18
			c1.205,2.83,2.872,5.401,4.978,7.669c4.877,5.254,11.51,8.294,18.674,8.56c0.215,0.007,0.43,0.009,0.644,0.012
			c-0.327,6.954,2.021,14.028,7.119,19.52c3.654,3.936,8.293,6.629,13.403,7.844c-2.985,8.92-1.138,19.163,5.699,26.528
			c1.51,1.627,3.191,3.039,5.004,4.22L444.795,389.109z M442.296,341.928c-3.159-0.116-6.084-1.457-8.235-3.774
			c-4.148-4.469-4.175-11.312-0.26-15.812c0.255-0.22,0.51-0.442,0.758-0.672l23.422-21.759c0.346-0.321,0.68-0.65,1.005-0.984
			c2.175-1.66,4.838-2.506,7.606-2.411c3.16,0.117,6.085,1.458,8.236,3.775c4.439,4.781,4.161,12.283-0.618,16.723l-4.319,4.013
			c-0.863,0.628-1.697,1.306-2.491,2.043l-18.312,17.012C447.08,341.367,444.736,342.02,442.296,341.928z M493.328,350.978
			l-23.843,22.15c-1.927,1.791-4.345,2.846-6.932,3.046c-0.103,0.007-0.206,0.012-0.308,0.023c-0.347,0.017-0.695,0.024-1.047,0.01
			c-3.083-0.113-5.937-1.422-8.035-3.682c-4.331-4.666-4.061-11.985,0.602-16.317l4.731-4.395c0.866-0.631,1.704-1.312,2.502-2.053
			l18.298-16.999c1.954-1.243,4.232-1.871,6.6-1.784c3.084,0.114,5.938,1.423,8.037,3.683
			C498.262,339.326,497.991,346.646,493.328,350.978z"/>
	</g>
</g>
<g>
</g>
<g>
</g>
<g>
</g>
<g>
</g>
<g>
</g>
<g>
</g>
<g>
</g>
<g>
</g>
<g>
</g>
<g>
</g>
<g>
</g>
<g>
</g>
<g>
</g>
<g>
</g>
<g>
</g>
</svg>
