<?xml version="1.0" encoding="iso-8859-1"?>
<!-- Generator: Adobe Illustrator 19.0.0, SVG Export Plug-In . SVG Version: 6.00 Build 0)  -->
<svg version="1.1" id="Capa_1" xmlns="http://www.w3.org/2000/svg" xmlns:xlink="http://www.w3.org/1999/xlink" x="0px" y="0px"
	 viewBox="0 0 512 512" style="enable-background:new 0 0 512 512;" xml:space="preserve">
<g>
	<g>
		<path fill="#535353" stroke="#535353" d="M446.793,364.072l-134.979-39.242v-11.569h34.695c29.113,0,52.797-23.684,52.797-52.797V143.306
			C399.306,64.286,335.019,0,256,0S112.694,64.286,112.694,143.306v117.159c0,29.113,23.684,52.797,52.797,52.797h34.695v11.569
			L65.12,364.098c-20.267,6.157-33.884,24.525-33.884,45.706v101.571h15.085V409.804c0-14.492,9.317-27.06,23.097-31.247
			l82.497-23.984v89.926h42.432L256,512l61.654-67.501h42.432v-89.927l82.409,23.959c13.867,4.213,23.184,16.78,23.184,31.273
			v101.571h15.085V409.804C480.764,388.623,467.146,370.255,446.793,364.072z M280.842,287.179
			c-0.154,0.048-0.309,0.096-0.463,0.143c-1.122,0.346-2.255,0.668-3.397,0.966c-0.126,0.033-0.251,0.069-0.378,0.102
			c-1.206,0.309-2.423,0.588-3.648,0.844c-0.27,0.056-0.541,0.106-0.812,0.159c-0.966,0.191-1.939,0.365-2.916,0.522
			c-0.329,0.052-0.657,0.109-0.987,0.157c-1.201,0.178-2.408,0.336-3.624,0.462c-0.213,0.022-0.428,0.036-0.643,0.056
			c-1.046,0.101-2.098,0.18-3.154,0.24c-0.346,0.02-0.693,0.039-1.04,0.054c-1.255,0.056-2.514,0.096-3.782,0.096
			c-1.268,0-2.527-0.039-3.782-0.096c-0.347-0.016-0.694-0.035-1.04-0.054c-1.057-0.061-2.108-0.141-3.154-0.24
			c-0.214-0.021-0.428-0.034-0.643-0.056c-1.217-0.126-2.424-0.284-3.624-0.462c-0.33-0.049-0.658-0.105-0.987-0.157
			c-0.977-0.157-1.95-0.331-2.916-0.522c-0.271-0.053-0.542-0.103-0.812-0.159c-1.226-0.255-2.443-0.535-3.648-0.844
			c-0.127-0.032-0.251-0.068-0.378-0.102c-1.142-0.299-2.275-0.622-3.397-0.966c-0.155-0.047-0.309-0.094-0.463-0.143
			c-33.649-10.583-58.124-42.067-58.124-79.163v-51.288c0-27.774,20.763-50.788,47.584-54.335
			c4.096,51.442,47.268,92.047,99.745,92.047h18.605v13.576C338.967,245.112,314.491,276.596,280.842,287.179z M165.491,298.177
			c-20.795,0-37.712-16.917-37.712-37.712V143.306c0-70.702,57.519-128.221,128.221-128.221s128.221,57.519,128.221,128.221v117.159
			c0,20.795-16.917,37.712-37.712,37.712h-34.695v-9.593c25.504-17.723,42.237-47.226,42.237-80.568v-28.661h-33.689
			c-46.857,0-84.978-38.121-84.978-84.978v-7.542h-7.542c-38.539,0-69.893,31.354-69.893,69.893v51.288
			c0,33.342,16.733,62.844,42.237,80.568v9.593H165.491z M200.998,429.415H167v-79.227l35.827-10.416l37.296,132.477
			L200.998,429.415z M255.998,472.986l-40.729-144.672v-31.089h0.002c3.744,1.712,7.59,3.175,11.512,4.397
			c0.042,0.013,0.084,0.027,0.127,0.04c0.617,0.191,1.237,0.374,1.857,0.554c0.215,0.062,0.43,0.126,0.647,0.187
			c0.513,0.144,1.027,0.283,1.542,0.418c0.329,0.087,0.658,0.173,0.989,0.257c0.437,0.111,0.875,0.217,1.313,0.321
			c0.413,0.099,0.829,0.195,1.244,0.289c0.379,0.085,0.758,0.168,1.138,0.248c0.476,0.101,0.953,0.197,1.432,0.292
			c0.337,0.066,0.673,0.132,1.011,0.194c0.523,0.097,1.048,0.188,1.573,0.277c0.305,0.051,0.609,0.104,0.915,0.152
			c0.558,0.089,1.118,0.17,1.679,0.249c0.281,0.039,0.561,0.081,0.842,0.119c0.584,0.077,1.171,0.146,1.757,0.213
			c0.266,0.03,0.53,0.063,0.795,0.092c0.597,0.063,1.198,0.117,1.798,0.169c0.258,0.022,0.517,0.048,0.776,0.069
			c0.608,0.048,1.22,0.086,1.831,0.123c0.252,0.015,0.504,0.035,0.756,0.048c0.638,0.033,1.277,0.056,1.918,0.077
			c0.226,0.008,0.452,0.02,0.678,0.026c0.863,0.022,1.729,0.035,2.598,0.035c0.869,0,1.734-0.012,2.598-0.035
			c0.226-0.006,0.452-0.018,0.678-0.026c0.641-0.021,1.281-0.043,1.918-0.077c0.252-0.013,0.504-0.033,0.756-0.048
			c0.611-0.036,1.223-0.074,1.831-0.123c0.259-0.02,0.518-0.046,0.776-0.069c0.6-0.052,1.201-0.106,1.798-0.169
			c0.266-0.028,0.531-0.061,0.796-0.092c0.586-0.066,1.173-0.136,1.756-0.212c0.281-0.037,0.561-0.078,0.842-0.119
			c0.561-0.079,1.121-0.16,1.68-0.249c0.306-0.048,0.61-0.101,0.915-0.152c0.526-0.089,1.05-0.18,1.573-0.277
			c0.337-0.062,0.674-0.128,1.011-0.194c0.479-0.094,0.956-0.19,1.432-0.292c0.38-0.08,0.759-0.163,1.138-0.248
			c0.415-0.094,0.831-0.189,1.244-0.289c0.438-0.105,0.876-0.211,1.313-0.321c0.33-0.083,0.66-0.17,0.989-0.257
			c0.515-0.136,1.029-0.273,1.542-0.418c0.215-0.061,0.43-0.124,0.646-0.186c0.622-0.18,1.244-0.363,1.862-0.555
			c0.038-0.012,0.076-0.024,0.115-0.036c3.924-1.223,7.773-2.687,11.52-4.4v31.087L255.998,472.986z M345.001,429.415
			L345.001,429.415h-33.999l-39.124,42.834l37.296-132.477l35.827,10.416V429.415z"/>
	</g>
</g>
<g>
	<g>
		<rect x="101.631" y="452.042" width="15.085" height="59.334"/>
	</g>
</g>
<g>
	<g>
		<rect x="395.282" y="452.042" width="15.085" height="59.334"/>
	</g>
</g>
<g>
</g>
<g>
</g>
<g>
</g>
<g>
</g>
<g>
</g>
<g>
</g>
<g>
</g>
<g>
</g>
<g>
</g>
<g>
</g>
<g>
</g>
<g>
</g>
<g>
</g>
<g>
</g>
<g>
</g>
</svg>
