<svg id="Capa_1" enable-background="new 0 0 512.001 512.001" height="512" viewBox="0 0 512.001 512.001" width="512" xmlns="http://www.w3.org/2000/svg"><g><path d="m449.977 503.212-7.687-44.086c-4.306-24.69-21.834-44.798-45.79-52.491l-72.859-22.903c-2.765-.869-4.784-3.287-5.146-6.161l-5.264-41.711c-.052-.409-.144-.802-.256-1.184 6.236-4.451 12.335-9.411 17.976-14.826 2.988-2.869 3.086-7.616.218-10.604-2.87-2.989-7.617-3.084-10.604-.217-23.356 22.42-55.722 36.142-65.562 36.142-12.38 0-62.474-23.164-81.393-57.359-14.26-25.773-22.846-57.61-24.443-90.31 13.269-3.263 23.143-15.256 23.143-29.517v-14.28c0-17.647 14.356-32.004 32.004-32.004 16.415 0 30.362-10.734 35.213-25.548.936 1.046 1.901 2.073 2.894 3.079 9.89 10.011 22.175 17.391 35.53 21.341 3.975 1.175 8.144-1.093 9.319-5.064 1.175-3.972-1.093-8.145-5.065-9.319-10.932-3.234-20.999-9.285-29.112-17.498-12.928-13.088-20.048-30.497-20.048-49.02 0-13.602 11.053-24.668 24.639-24.668h26.702c25.742 0 49.945 10.032 68.15 28.247 18.206 18.225 28.232 42.451 28.232 68.215v71.823l-10.958-.141c-8.382-.107-15.201-7.014-15.201-15.397v-5.587c0-23.277-15.555-44.228-37.826-50.947-3.963-1.2-8.15 1.047-9.347 5.014-1.196 3.966 1.049 8.15 5.015 9.347 15.99 4.825 27.158 19.87 27.158 36.587v5.587c0 14.213 9.933 26.268 23.219 29.525-1.532 30.555-9.483 60.774-22.656 85.763-1.932 3.665-.526 8.201 3.138 10.132 1.115.588 2.312.867 3.49.867 2.694 0 5.298-1.456 6.642-4.004 3.867-7.336 7.312-15.088 10.316-23.142 3.317-.259 6.56-.789 9.692-1.598v32.122c0 4.142 3.357 7.5 7.5 7.5s7.5-3.358 7.5-7.5v-38.436c16.339-9.87 27.283-27.774 27.283-48.182 0-12.52-8.456-23.099-19.965-26.365v-72.967c0-29.769-11.585-57.76-32.622-78.818-21.039-21.056-49.011-32.649-78.761-32.649h-26.702c-17.428 0-32.255 11.32-37.552 26.995-2.804-.852-5.729-1.321-8.689-1.321-22.633 0-44.566 8.079-61.762 22.749-3.151 2.688-3.527 7.422-.839 10.573 1.483 1.739 3.59 2.632 5.71 2.632 1.721 0 3.451-.589 4.863-1.794 14.483-12.355 32.961-19.16 52.028-19.16 2.36 0 4.615.547 6.664 1.576.356 12.028 3.185 23.623 8.256 34.185v8.217c0 12.157-9.891 22.048-22.049 22.048-25.918 0-47.004 21.086-47.004 47.004v14.28c0 8.491-6.908 15.399-15.399 15.399h-10.678v-62.499c0-12.602 2.837-24.66 8.431-35.84 1.854-3.704.354-8.209-3.351-10.063-3.706-1.852-8.21-.354-10.063 3.351-6.646 13.283-10.017 27.6-10.017 42.552v63.547c-11.509 3.266-19.965 13.845-19.965 26.365 0 19.566 10.064 36.824 25.292 46.914v39.705c0 4.142 3.357 7.5 7.5 7.5s7.5-3.358 7.5-7.5v-32.688c3.598 1.073 7.345 1.793 11.203 2.127 3.599 9.929 7.844 19.403 12.721 28.219 8.923 16.128 23.269 29.865 38.335 40.507-.015.093-.037.182-.049.276l-5.265 41.716c-.362 2.874-2.382 5.292-5.146 6.161l-72.904 22.917c-23.912 7.678-41.44 27.786-45.746 52.477l-7.687 44.086c-.711 4.081 2.02 7.965 6.101 8.677.436.076.869.113 1.297.113 3.577 0 6.744-2.568 7.38-6.213l7.687-44.085c3.345-19.181 16.969-34.804 35.511-40.758l36.056-11.334c16.999 23.395 49.144 39.219 85.739 42.504l-13.278 18.373c-1.895 2.622-1.895 6.164 0 8.786l21.405 29.62c1.41 1.951 3.672 3.107 6.079 3.107s4.669-1.156 6.079-3.107l21.405-29.62c1.895-2.622 1.895-6.164 0-8.786l-13.278-18.373c36.596-3.285 68.74-19.109 85.739-42.504l36.012 11.32c18.586 5.969 32.21 21.592 35.555 40.772l7.687 44.086c.636 3.645 3.803 6.213 7.38 6.213.428 0 .861-.037 1.297-.113 4.084-.714 6.814-4.599 6.103-8.679zm-49.244-292.418c0 19.44-13.552 35.774-31.731 40.134 4.865-16.895 7.872-34.738 8.792-52.68l10.378.133h.096c6.873.001 12.465 5.569 12.465 12.413zm-289.465 0c0-6.844 5.592-12.413 12.465-12.413h10.461c.891 17.962 3.782 35.697 8.455 52.466-18.003-4.483-31.381-20.737-31.381-40.053zm144.733 280.901-12.151-16.815 12.151-16.815 12.151 16.815zm0-53.934c-35.397 0-67.367-12.691-84.655-32.957l21.515-6.763c8.261-2.598 14.312-9.785 15.489-18.348 4.69 2.7 9.599 5.001 14.68 6.869 2.874.972 7.43.241 9.627-4.452 1.43-3.888-.563-8.198-4.451-9.627-6.279-2.307-12.245-5.402-17.776-9.197l2.37-18.783c17.506 10.071 34.033 15.667 42.203 15.667 8.838 0 26.065-5.966 44.093-16.513l2.477 19.627c-12.396 8.509-26.824 13.366-41.876 14.055-4.138.189-7.339 3.697-7.149 7.835.099 2.892 3.088 7.08 7.835 7.149 15.32-.701 30.096-5.039 43.271-12.629 1.178 8.563 7.229 15.75 15.49 18.348l21.514 6.763c-17.29 20.265-49.26 32.956-84.657 32.956z"/><path d="m238.634 264.275c5.438 2.763 11.402 4.145 17.367 4.145s11.93-1.382 17.367-4.145c3.692-1.876 5.164-6.392 3.287-10.084-1.876-3.692-6.39-5.164-10.084-3.288-6.619 3.364-14.521 3.364-21.141 0-3.69-1.876-8.207-.406-10.084 3.288-1.877 3.693-.405 8.208 3.288 10.084z"/><path d="m308.861 213.781v-14.935c0-4.142-3.357-7.5-7.5-7.5s-7.5 3.358-7.5 7.5v14.935c0 4.142 3.357 7.5 7.5 7.5s7.5-3.358 7.5-7.5z"/><path d="m210.52 191.347c-4.143 0-7.5 3.358-7.5 7.5v14.935c0 4.142 3.357 7.5 7.5 7.5s7.5-3.358 7.5-7.5v-14.935c0-4.142-3.357-7.5-7.5-7.5z"/><path d="m343.708 206.314c0-23.35-18.997-42.347-42.347-42.347-20.964 0-38.409 15.316-41.757 35.344h-7.295c-3.552-19.783-20.879-34.846-41.668-34.846-23.35 0-42.347 18.997-42.347 42.346 0 23.35 18.997 42.347 42.347 42.347 20.789 0 38.116-15.064 41.668-34.847h7.474c3.751 19.538 20.964 34.349 41.579 34.349 23.349 0 42.346-18.996 42.346-42.346zm-133.068 27.844c-15.079 0-27.347-12.268-27.347-27.347s12.268-27.346 27.347-27.346 27.347 12.268 27.347 27.346c0 15.08-12.268 27.347-27.347 27.347zm63.374-27.844c0-15.079 12.268-27.347 27.347-27.347s27.347 12.268 27.347 27.347-12.268 27.346-27.347 27.346-27.347-12.267-27.347-27.346z"/><path d="m224.553 285.042c-2.435 3.351-1.692 8.041 1.659 10.476 8.76 6.365 19.025 9.547 29.291 9.547 10.265 0 20.53-3.182 29.29-9.547 3.352-2.435 4.094-7.125 1.659-10.476s-7.123-4.094-10.476-1.659c-12.246 8.896-28.702 8.897-40.948 0-3.348-2.433-8.04-1.693-10.475 1.659z"/></g></svg>